<svg xmlns="http://www.w3.org/2000/svg" viewBox="0 0 3394.29 595.88"><defs><style>.cls-1{fill:#fff;}</style></defs><title>mensagem</title><g id="Layer_2" data-name="Layer 2"><g id="Layer_1-2" data-name="Layer 1"><path class="cls-1" d="M287.05,33.31h33q6.94,0,13.33,8.61H287.05Zm13.88,15.27v7.5H287.05V44.42h48.3a57.4,57.4,0,0,1,5.83,11.66h-15a20.54,20.54,0,0,0-5.14-5.42A11.9,11.9,0,0,0,314,48.58ZM287.05,59.41h13.88V70.24H287.05Zm0,14.71h13.88V84.39H287.05Zm0,15h13.88v9.44H287.05Zm0,14.72h13.88V113H287.05Zm0,15h13.88v8.33H287.05Zm48.86,22.48H287.05v-7.49h13.88v3.05h15.54a10.19,10.19,0,0,0,7.5-3.05h15.82A39.06,39.06,0,0,1,335.91,141.3ZM319.8,152.13H300.93v3.33H287.05v-6.94h42.19A14.69,14.69,0,0,1,319.8,152.13Zm-32.75,11.38h13.88v6.11H287.05Zm0,14.72h13.88v5.55H287.05Zm0,15h13.88v5H287.05Zm0,14.71h13.88v4.44H287.05Zm0,15h13.88v3.61H287.05Zm0,15h13.88v2.78H287.05ZM343.82,64.54c.46,1.77.87,3.66,1.25,5.7H331.19a50.59,50.59,0,0,0-3.06-10.83h14.16C342.85,61.07,343.35,62.79,343.82,64.54Zm-.14,58.58c-.37,1.39-.74,2.73-1.11,4H328.41c.37-1.3.74-2.64,1.11-4s.74-2.82,1.11-4.3h14.16C344.42,120.3,344.05,121.73,343.68,123.12Zm2.91-44c.1,1.67.23,3.43.42,5.27H333.13c-.19-1.66-.37-3.37-.56-5.13a44.79,44.79,0,0,0-.83-5.14H345.9A30.67,30.67,0,0,1,346.59,79.12Zm-.27,29.43a25.3,25.3,0,0,1-.7,4.44H331.74a25.56,25.56,0,0,0,.7-4.58c.09-1.57.23-3.1.41-4.58h13.88C346.55,105.49,346.41,107.07,346.32,108.55Zm1-16.66V95.5a19.2,19.2,0,0,1-.28,3h-13.6v-3a13,13,0,0,1,.28-3.06,3.26,3.26,0,0,1-.14-1.66,3.53,3.53,0,0,0-.14-1.67h13.88Z"/><path class="cls-1" d="M357.28,237.91h15.27l-.55,2.78H356.73Zm2.22-15h15l-.55,3.61H359Zm2.22-15h14.72l-.56,4.44h-15Zm1.95-14.71h15l-.83,5H363.11Zm2.22-15H380.6l-.83,5.55H365.05Zm2.22-14.72h55l.83,6.11H367.28Zm2.22-15h14.44l-1.11,6.94H369.22Zm2.22-14.71H387l-1.11,7.49H371.44Zm2.22-15h14.44l-1.39,8.33H373.38Zm2.22-15h14.16L390,113H375.6Zm2.22-14.72h14.16L392,98.55H377.83Zm14.72-4.72H379.77l1.66-10.27h28l1.67,10.27H396.42l-1.11-8.6Zm-10.55-25h23.87l1.67,10.83H382Zm2.22-15H405l1.67,11.66H383.93Zm1.66-11.11h16.11l1.11,8.61h-18.6Zm10,55.8h14.43l1.39,9.44H398.65Zm1.94,14.72h14.72L415.3,113H400.59Zm2.22,15h14.72l1.38,8.33H402.81Zm2.22,15h14.72l1.11,7.49H404.75Zm2.22,14.71h14.72l1.11,6.94h-15Zm4.45,29.71h15l.83,5.55h-15Zm2.22,15h15l.83,5h-15Zm2.22,14.71h15l.83,4.44h-15Zm2.22,15h15l.55,3.61h-15Zm2.22,15h15l.56,2.78h-15Z"/><path class="cls-1" d="M460,33.31h33.31q6.66,0,13.6,8.61H460Zm13.88,15.27v7.5H460V44.42h48.58a67.54,67.54,0,0,1,6.11,11.66H499.42a20.71,20.71,0,0,0-5.14-5.42,12.41,12.41,0,0,0-7.36-2.08ZM460,59.41h13.88V70.24H460Zm0,14.71h13.88V84.39H460Zm0,15h13.88v9.44H460Zm0,14.72h13.88V113H460Zm0,15h13.88v8.33H460Zm50,22.48H460v-7.49h13.88v3.05h15.54a10.19,10.19,0,0,0,7.5-3.05h16.93Q511.63,138.54,510,141.3Zm-5.69,11.11a23.43,23.43,0,0,0,1.52,3.05H488.31a10.91,10.91,0,0,0-1.66-1.8c-.56-.46-1.11-1-1.67-1.53h-11.1v3.33H460v-6.94h43.3l-.55.56Q503.58,150.75,504.28,152.41ZM460,163.51h13.88v6.11H460Zm0,14.72h13.88v5.55H460Zm0,15h13.88v5H460Zm0,14.71h13.88v4.44H460Zm0,15h13.88v3.61H460Zm0,15h13.88v2.78H460Zm49.83-71.34a23.81,23.81,0,0,0,1,3.05H495.25c-.37-1.11-.74-2.17-1.11-3.19s-.74-2-1.11-2.92h15.83A24.5,24.5,0,0,1,509.83,166.57Zm3.61,14.16a10,10,0,0,0,.69,2.49v.56H499.42a15.49,15.49,0,0,1-.84-2.78c-.18-.92-.37-1.84-.55-2.77h15C513.2,179.16,513.34,180,513.44,180.73Zm3.88-116.19c.46,1.77.88,3.66,1.25,5.7H504.42a82.59,82.59,0,0,0-3.34-10.83H515.8C516.35,61.07,516.86,62.79,517.32,64.54Zm-.14,58.58c-.37,1.39-.74,2.73-1.11,4H501.36a29,29,0,0,0,1.39-4c.37-1.39.74-2.82,1.11-4.3h14.43C517.92,120.3,517.55,121.73,517.18,123.12Zm-15.26,72.6c-.19-.74-.38-1.57-.56-2.5h15l1.11,5h-15C502.29,197.29,502.1,196.46,501.92,195.72Zm2.5,12.21h15.26l.84,4.44H505.25ZM520.1,79.12c.09,1.67.23,3.43.42,5.27H506.36c-.19-1.66-.37-3.37-.56-5.13a44.79,44.79,0,0,0-.83-5.14h14.44A33,33,0,0,1,520.1,79.12ZM519.41,113H505l.83-9.16h14.44Q519.68,108.82,519.41,113Zm1.38-21.1V95.5a19.11,19.11,0,0,1-.27,3H506.36a13.38,13.38,0,0,0,.28-3,13.69,13.69,0,0,1,.27-3.06,3.49,3.49,0,0,1-.14-1.66,3.4,3.4,0,0,0-.13-1.67h14.15Zm-13.32,131H523l.84,3.61H508Zm3,15h15.83l.55,2.78H511.08Z"/><path class="cls-1" d="M551.33,33.31h61.35v8.61H551.33Zm13.88,15.27v7.5H551.33V44.42h61.35v4.16ZM551.33,59.41h13.88V70.24H551.33Zm0,14.71h13.88V84.39H551.33Zm0,15h13.88v9.44H551.33Zm0,14.72h13.88V113H551.33Zm56.08,23v.28H551.33v-8.33h13.88v8.05Zm-56.08,6.94h56.08v7.49H551.33Zm0,14.71h13.88v6.94H551.33Zm0,15h13.88v6.11H551.33Zm0,14.72h13.88v5.55H551.33Zm0,15h13.88v5H551.33Zm0,14.71h13.88v4.44H551.33Zm0,15h13.88v3.61H551.33Zm0,15h61.35v2.78H551.33Z"/><path class="cls-1" d="M640.44,44.42h55.24a23.29,23.29,0,0,1,3.06,11.38v.28H684.3a10.47,10.47,0,0,0-2.22-5.69c-1.11-1.2-3-1.81-5.55-1.81H659.32q-5.28,0-6.94,7.5H637.66A36,36,0,0,1,640.44,44.42Zm11.1,18.88v6.94H637.66V59.41h14.16A20.54,20.54,0,0,0,651.54,63.3ZM637.66,74.12h13.88V84.39H637.66Zm0,15h13.88v9.44H637.66Zm0,14.72h13.88V113H637.66Zm0,15h13.88v8.33H637.66Zm0,15h13.88v7.49H637.66Zm0,14.71h13.88v6.94H637.66Zm0,15h13.88v6.11H637.66Zm0,14.72h13.88v5.55H637.66Zm0,15h13.88v5H637.66Zm13.88,19.15H637.66v-4.44h13.88v4.44Zm8.05,14.16H638.77l-.55-1.66a6.08,6.08,0,0,1-.28-2h15.82C654.87,224.77,656.82,226,659.59,226.53ZM648.21,35.67a16.8,16.8,0,0,1,8.89-2.36h22.2a22.61,22.61,0,0,1,8.61,2.78,19.3,19.3,0,0,1,6.38,5.83H641.83A19.63,19.63,0,0,1,648.21,35.67Zm40.95,203.77a11.55,11.55,0,0,1-2.36,1.25H649.88a11.19,11.19,0,0,1-4.44-2.78h45.8C690.5,238.47,689.81,239,689.16,239.44Zm-6-16.52h15.27a7.94,7.94,0,0,0-.28,2,5.08,5.08,0,0,1-.28,1.66H679.3A5.82,5.82,0,0,0,683.19,222.92ZM684.86,63.3V59.41h13.88V70.24H684.86Zm0,10.82h13.88V84.39H684.86Zm0,15h13.88v9.44H684.86Zm0,89.12h13.88v5.55H684.86Zm0,15h13.88v5H684.86Zm0,18.6v-3.89h13.88v4.44H684.86Z"/><path class="cls-1" d="M723.72,33.31h61.35v8.61H723.72ZM737.6,48.58v7.5H723.72V44.42h61.35v4.16ZM723.72,59.41H737.6V70.24H723.72Zm0,14.71H737.6V84.39H723.72Zm0,15H737.6v9.44H723.72Zm0,14.72H737.6V113H723.72Zm56.08,23v.28H723.72v-8.33H737.6v8.05Zm-56.08,6.94H779.8v7.49H723.72Zm0,14.71H737.6v6.94H723.72Zm0,15H737.6v6.11H723.72Zm0,14.72H737.6v5.55H723.72Zm0,15H737.6v5H723.72Zm0,14.71H737.6v4.44H723.72Zm0,15H737.6v3.61H723.72Zm0,15h61.35v2.78H723.72Z"/><path class="cls-1" d="M885,44.42h56.08a24.24,24.24,0,0,1,2.77,10.82v.84H929.43a12.35,12.35,0,0,0-2.22-6c-1.11-1.39-3-2.08-5.56-2.08H904.44q-5,0-7.22,8H882.79A32.52,32.52,0,0,1,885,44.42Zm11.66,18.32v7.5H882.79V59.41h13.88ZM882.79,74.12h13.88V84.39H882.79Zm0,15h13.88v9.44H882.79Zm0,14.72h13.88V113H882.79Zm0,15h13.88v8.33H882.79Zm0,15h13.88v7.49H882.79Zm0,14.71h13.88v6.94H882.79Zm0,15h13.88v6.11H882.79Zm0,14.72h13.88v5.55H882.79Zm0,15h13.88v5H882.79Zm13.88,19.15H882.79v-4.44h13.88v4.44Zm-13.33,12.5a6.38,6.38,0,0,1-.27-2h16.1q1.94,3.06,7.49,3.61H883.9C883.71,226,883.53,225.42,883.34,224.87Zm9-189.47a17.55,17.55,0,0,1,9.85-2.64h22.21a20.39,20.39,0,0,1,8.88,3.05,22.61,22.61,0,0,1,6.39,6.11H886.12A19,19,0,0,1,892.37,35.4Zm.27,204c-.65-.46-1.34-1-2.08-1.53h45.81c-.74.56-1.44,1.07-2.08,1.53a11.82,11.82,0,0,1-2.36,1.25H895A11.55,11.55,0,0,1,892.64,239.44Zm14-104.8h13.88v6.66H906.66Zm0,13.88h13.88v6.94H906.66Zm0,15h13.88v6.11H906.66Zm0,14.72h13.88v5.55H906.66Zm0,15h13.88v5H906.66Zm0,14.71h13.88v4.44H906.66Zm0,15h13.88v3.61H906.66Zm0,29.71h13.88v2.22H906.66Zm36.65-27.76a5.35,5.35,0,0,1-.28,1.66H922.49a6.49,6.49,0,0,0,5.83-3.61h15.27A7.94,7.94,0,0,0,943.31,224.87ZM930,63V59.41h13.88V70.24H930Zm0,11.1h13.88V84.39H930Zm0,15h13.88v9.44H930Zm0,14.72h13.88V113H930Zm0,15h13.88v8.33H930Zm0,15h13.88v7.49H930Zm0,14.71h13.88v6.94H930Zm0,15h13.88v6.11H930Zm0,14.72h13.88v5.55H930Zm0,15h13.88v5H930Zm0,18.6v-3.89h13.88v4.44H930Z"/><path class="cls-1" d="M968.85,33.31h13.88v8.61H968.85Zm0,11.11h13.88V56.08H968.85Zm0,15h13.88V70.24H968.85Zm0,14.71h13.88V84.39H968.85Zm0,15h13.88v9.44H968.85Zm0,14.72h13.88V113H968.85Zm0,15h13.88v8.33H968.85Zm0,15h13.88v7.49H968.85Zm0,14.71h13.88v6.94H968.85Zm0,15h13.88v6.11H968.85Zm0,14.72h13.88v5.55H968.85Zm0,15h13.88v5H968.85Zm13.88,19.15H968.85v-4.44h13.88v4.44Zm8.6,14.16H970c-.19-.55-.38-1.11-.56-1.66a6.38,6.38,0,0,1-.27-2h16.1A9.26,9.26,0,0,0,991.33,226.53Zm29,12.91a11.29,11.29,0,0,1-2.36,1.25H981.06a11.26,11.26,0,0,1-4.44-2.78h45.81C1021.68,238.47,1021,239,1020.34,239.44Zm-6-16.52h15.26a8.39,8.39,0,0,0-.27,2,5.35,5.35,0,0,1-.28,1.66h-18.6A5.84,5.84,0,0,0,1014.38,222.92ZM1016,33.31h13.88v8.61H1016Zm0,11.11h13.88V56.08H1016Zm0,15h13.88V70.24H1016Zm0,14.71h13.88V84.39H1016Zm0,15h13.88v9.44H1016Zm0,14.72h13.88V113H1016Zm0,15h13.88v8.33H1016Zm0,15h13.88v7.49H1016Zm0,14.71h13.88v6.94H1016Zm0,15h13.88v6.11H1016Zm0,14.72h13.88v5.55H1016Zm0,15h13.88v5H1016Zm0,18.6v-3.89h13.88v4.44H1016Z"/><path class="cls-1" d="M1054.91,33.31h61.35v8.61h-61.35Zm13.88,15.27v7.5h-13.88V44.42h61.35v4.16Zm-13.88,10.83h13.88V70.24h-13.88Zm0,14.71h13.88V84.39h-13.88Zm0,15h13.88v9.44h-13.88Zm0,14.72h13.88V113h-13.88Zm56.07,23v.28h-56.07v-8.33h13.88v8.05Zm-56.07,6.94H1111v7.49h-56.07Zm0,14.71h13.88v6.94h-13.88Zm0,15h13.88v6.11h-13.88Zm0,14.72h13.88v5.55h-13.88Zm0,15h13.88v5h-13.88Zm0,14.71h13.88v4.44h-13.88Zm0,15h13.88v3.61h-13.88Zm0,15h61.35v2.78h-61.35Z"/><path class="cls-1" d="M1214,178.23h13.88v5.55H1214Zm0,15h13.88v5H1214Zm13.88,19.15H1214v-4.44h13.88v4.44Zm.56-156.29h-14.16a28,28,0,0,1,2.5-11.66h55.52a23.29,23.29,0,0,1,3.06,11.38v.28h-14.44q-1.4-7.5-7.77-7.5h-17.21Q1229.79,48.58,1228.41,56.08Zm-.28,14.16h-13.88V59.41h13.88V70.24Zm-13.88,3.88h13.88V84.39h-13.88Zm0,15h13.88v9.44h-13.88Zm0,14.72h13.88V113h-13.88Zm0,21.1v-6.11h13.88a31,31,0,0,0,.42,5.41,3.55,3.55,0,0,0,3.19,2.92h-17.49Zm19.43,101.6h-18.87a15.1,15.1,0,0,1-.56-3.61h15A6,6,0,0,0,1233.68,226.53Zm-17.48-92.72h54.41a18,18,0,0,1,4.16,7.49h-50.52A14.45,14.45,0,0,1,1216.2,133.81Zm48.3-97.72a19.3,19.3,0,0,1,6.38,5.83h-52.74a17.19,17.19,0,0,1,6-5.83,22.59,22.59,0,0,1,9.3-2.78h22.48A22.61,22.61,0,0,1,1264.5,36.09Zm-39.28,203.35c-.65-.46-1.44-1-2.36-1.53h44.42a18.48,18.48,0,0,1-4.72,2.78h-35A11,11,0,0,1,1225.22,239.44Zm34.28-16.52h15.27a16.09,16.09,0,0,1-.55,3.61h-18.6A5.82,5.82,0,0,0,1259.5,222.92Zm1.67-163.51h14.16V70.24h-13.88V63.57A23.5,23.5,0,0,0,1261.17,59.41Zm0,89.11h14.16v6.94h-13.88V151.3A10,10,0,0,0,1261.17,148.52Zm.28-74.4h13.88V84.39h-13.88Zm0,15h13.88v9.44h-13.88Zm0,74.4h13.88v6.11h-13.88Zm0,14.72h13.88v5.55h-13.88Zm0,15h13.88v5h-13.88Zm0,18.88v-4.17h13.88v4.44h-13.88Z"/><path class="cls-1" d="M1300.31,33.31h13.88v8.61h-13.88Zm0,11.11h13.88V56.08h-13.88Zm0,15h13.88V70.24h-13.88Zm0,14.71h13.88V84.39h-13.88Zm0,15h13.88v9.44h-13.88Zm0,14.72h13.88V113h-13.88Zm0,15h13.88v8.33h-13.88Zm0,15h13.88v7.49h-13.88Zm0,14.71h13.88v6.94h-13.88Zm0,15h13.88v6.11h-13.88Zm0,14.72h13.88v5.55h-13.88Zm0,15h13.88v5h-13.88Zm13.88,19.15h-13.88v-4.44h13.88v4.44Zm8.6,14.16h-21.37c-.19-.55-.38-1.11-.56-1.66a6.38,6.38,0,0,1-.27-2h16.1A9.26,9.26,0,0,0,1322.79,226.53Zm29,12.91a11.45,11.45,0,0,1-2.35,1.25h-36.93a11.26,11.26,0,0,1-4.44-2.78h45.81C1353.15,238.47,1352.45,239,1351.8,239.44Zm-6-16.52h15.27a7.94,7.94,0,0,0-.28,2,5.35,5.35,0,0,1-.28,1.66H1342A5.84,5.84,0,0,0,1345.84,222.92Zm1.66-189.61h13.88v8.61H1347.5Zm0,11.11h13.88V56.08H1347.5Zm0,15h13.88V70.24H1347.5Zm0,14.71h13.88V84.39H1347.5Zm0,15h13.88v9.44H1347.5Zm0,14.72h13.88V113H1347.5Zm0,15h13.88v8.33H1347.5Zm0,15h13.88v7.49H1347.5Zm0,14.71h13.88v6.94H1347.5Zm0,15h13.88v6.11H1347.5Zm0,14.72h13.88v5.55H1347.5Zm0,15h13.88v5H1347.5Zm0,18.6v-3.89h13.88v4.44H1347.5Z"/><path class="cls-1" d="M1386.64,237.91h15.27l-.55,2.78h-15.27Zm2.23-15h15l-.56,3.61h-15Zm2.22-15h14.71l-.56,4.44h-15Zm1.94-14.71h15l-.83,5h-14.72Zm2.22-15H1410l-.83,5.55h-14.71Zm2.22-14.72h55l.83,6.11h-56.63Zm2.22-15h14.44l-1.11,6.94h-14.44Zm2.22-14.71h14.44l-1.11,7.49H1400.8Zm2.22-15h14.44l-1.39,8.33h-14.43Zm2.22-15h14.16L1419.4,113H1405Zm2.23-14.72h14.15l-1.38,9.44h-14.16Zm14.71-4.72h-14.16l1.67-10.27h28l1.67,10.27h-14.71l-1.11-8.6Zm-10.55-25h23.87l1.67,10.83h-26.93Zm2.22-15h19.43l1.67,11.66h-22.77Zm1.67-11.11h16.1l1.11,8.61h-18.6Zm10,55.8h14.44l1.38,9.44H1428Zm1.94,14.72h14.72l1.39,9.16H1430Zm2.22,15h14.72l1.39,8.33h-14.72Zm2.23,15h14.71l1.11,7.49h-14.71Zm2.22,14.71h14.71l1.11,6.94h-15Zm4.44,29.71h15l.83,5.55h-15Zm2.22,15h15l.83,5h-15Zm2.22,14.71h15l.83,4.44h-15Zm2.22,15h15l.56,3.61h-15Zm2.22,15h15l.56,2.78h-15Z"/><path class="cls-1" d="M1561.81,33.31h33q6.93,0,13.33,8.61h-46.37Zm13.89,15.27v7.5h-13.89V44.42h48.31A57.4,57.4,0,0,1,1616,56.08h-15a20.71,20.71,0,0,0-5.14-5.42,11.9,11.9,0,0,0-7.08-2.08Zm-13.89,10.83h13.89V70.24h-13.89Zm0,14.71h13.89V84.39h-13.89Zm0,15h13.89v9.44h-13.89Zm0,14.72h13.89V113h-13.89Zm0,15h13.89v8.33h-13.89Zm48.86,22.48h-48.86v-7.49h13.89v3.05h15.54a10.19,10.19,0,0,0,7.5-3.05h15.82A39,39,0,0,1,1610.67,141.3Zm-16.1,10.83H1575.7v3.33h-13.89v-6.94H1604A14.71,14.71,0,0,1,1594.57,152.13Zm-32.76,11.38h13.89v6.11h-13.89Zm0,14.72h13.89v5.55h-13.89Zm0,15h13.89v5h-13.89Zm0,14.71h13.89v4.44h-13.89Zm0,15h13.89v3.61h-13.89Zm0,15h13.89v2.78h-13.89Zm56.78-173.37c.46,1.77.87,3.66,1.25,5.7H1606a50.59,50.59,0,0,0-3.06-10.83h14.16C1617.62,61.07,1618.12,62.79,1618.59,64.54Zm-.14,58.58c-.38,1.39-.74,2.73-1.11,4h-14.16c.37-1.3.74-2.64,1.11-4s.74-2.82,1.11-4.3h14.16C1619.19,120.3,1618.82,121.73,1618.45,123.12Zm2.91-44c.09,1.67.23,3.43.42,5.27H1607.9c-.19-1.66-.37-3.37-.56-5.13a44.79,44.79,0,0,0-.83-5.14h14.16A30.67,30.67,0,0,1,1621.36,79.12Zm-.28,29.43a24.37,24.37,0,0,1-.69,4.44h-13.88a24.69,24.69,0,0,0,.69-4.58c.1-1.57.23-3.1.42-4.58h13.88C1621.31,105.49,1621.18,107.07,1621.08,108.55Zm1-16.66V95.5a19.2,19.2,0,0,1-.28,3h-13.6v-3a13.69,13.69,0,0,1,.27-3.06,3.49,3.49,0,0,1-.14-1.66,3.4,3.4,0,0,0-.13-1.67h13.88Z"/><path class="cls-1" d="M1647.32,237.91h15.27l-.56,2.78h-15.27Zm2.22-15h15l-.56,3.61h-15Zm2.22-15h14.71l-.55,4.44h-15Zm1.94-14.71h15l-.83,5h-14.71Zm2.22-15h14.72l-.84,5.55h-14.71Zm2.22-14.72h55l1.11,6.11h-56.91Zm1.95-15h14.71l-1.11,6.94h-14.44Zm2.22-14.71h14.43l-1.11,7.49H1661.2Zm2.22-15H1679l-1.11,8.33h-14.43Zm2.22-15h14.44L1679.8,113h-14.44ZM1669,89.11h14.16l-1.39,9.44h-14.16Zm15-4.72H1669.8l1.39-10.27h28.6l1.38,10.27h-14.43L1685.35,75Zm-10.55-25h24.15l1.67,10.83h-27.48Zm1.95-15h19.71L1697,56.08h-23.32Zm.55-17.77,3-11.94h13.61l-5.28,11.94Zm1.39,5.83h16.1l1.39,9.44h-18.88ZM1682.85,0H1699l-5.83,13.33h-13.88Zm4.44,89.11H1702l1.38,9.44h-14.71Zm2.22,14.72h14.72l1.39,9.16h-15Zm2,15h15l1.11,8.33h-14.71Zm2.22,15h15l1.11,7.49h-15Zm2.22,14.71h15l1.11,6.94h-15.27Zm4.44,29.71h15l.84,5.55h-15Zm2.22,15h15l.84,5h-15Zm2.22,14.71h15l.84,4.44h-15Zm2.22,15h15l.55,3.61h-15Zm2.22,15h15l.55,2.78h-15Z"/><path class="cls-1" d="M1752.25,44.42h55.53a23.39,23.39,0,0,1,3,11.38v.28h-14.44c-.93-5-3.51-7.5-7.77-7.5h-17.21q-5.28,0-6.94,7.5h-14.72A28.19,28.19,0,0,1,1752.25,44.42Zm11.38,18.88v6.94h-13.88V59.41h14.16A21.41,21.41,0,0,0,1763.63,63.3Zm-13.88,10.82h13.88V84.39h-13.88Zm0,15h13.88v9.44h-13.88Zm0,14.72h13.88V113h-13.88Zm0,15h13.88v8.33h-13.88Zm0,15h13.88v7.49h-13.88Zm0,14.71h13.88v6.94h-13.88Zm0,15h13.88v6.11h-13.88Zm0,14.72h13.88v5.55h-13.88Zm0,15h13.88v5h-13.88Zm13.88,19.15h-13.88v-4.44h13.88v4.44Zm8.61,14.16h-21.38l-.55-1.66a6.08,6.08,0,0,1-.28-2h16.1A9.28,9.28,0,0,0,1772.24,226.53ZM1759.61,35.67a18.62,18.62,0,0,1,9.58-2.36h22.21a22.62,22.62,0,0,1,8.6,2.78,19.43,19.43,0,0,1,6.39,5.83h-53A16.88,16.88,0,0,1,1759.61,35.67ZM1801,239.44a11.29,11.29,0,0,1-2.36,1.25H1762a11.19,11.19,0,0,1-4.44-2.78h45.53C1802.31,238.47,1801.62,239,1801,239.44Zm-20.68-105.63h30.54v7.49h-30.54ZM1797,149.35h-16.66v-.83h30.54v6.94H1797Zm-2,73.57h15.55a15.53,15.53,0,0,1-.55,3.61h-19.16A5.86,5.86,0,0,0,1795,222.92Zm2-159.35a23.5,23.5,0,0,0-.28-4.16h14.16V70.24H1797Zm0,10.55h13.88V84.39H1797Zm0,15h13.88v9.44H1797Zm0,74.4h13.88v6.11H1797Zm0,14.72h13.88v5.55H1797Zm0,15h13.88v5H1797Zm0,18.6v-3.89h13.88v4.44H1797Z"/><path class="cls-1" d="M1859.55,123c.09,1.3.14,2.69.14,4.17h-23.6v-8.33h23.32C1859.41,120.3,1859.45,121.69,1859.55,123Zm.14,18.32h-23.6v-7.49h23.6v7.49Zm-.14,10.83c-.1,1.11-.14,2.22-.14,3.33h-23.32v-6.94h23.6C1859.69,149.82,1859.64,151,1859.55,152.13Zm-.42-43.58a34.83,34.83,0,0,0,.28,4.44h-23a36.76,36.76,0,0,0,.28-4.44v-4.72h22.48Zm0,58.29a14.47,14.47,0,0,1-.27,2.78h-22.49v-6.11h22.76ZM1836.65,181v-2.77h21.93a13.78,13.78,0,0,0-.28,2.77v2.78h-21.38A14.55,14.55,0,0,1,1836.65,181Zm21.93-86.89a34.83,34.83,0,0,0,.28,4.44h-21.94a34.83,34.83,0,0,0,.28-4.44,44.1,44.1,0,0,1,.28-5h20.82A46.55,46.55,0,0,1,1858.58,94.11Zm-1.11,101.61v2.49h-19.71a12.39,12.39,0,0,1-.28-2.49v-2.5h20.27A12.56,12.56,0,0,0,1857.47,195.72Zm.28-116.32a46.35,46.35,0,0,0,.27,5h-20.26c0-1.66,0-3.33.14-5s.23-3.43.41-5.28h19.16C1857.65,76,1857.75,77.73,1857.75,79.4Zm-1.39,131a8.38,8.38,0,0,1-.28,1.94h-17.49a24.53,24.53,0,0,1-.28-4.44h18.32A13.27,13.27,0,0,0,1856.36,210.43Zm.27-145.61c.19,1.76.37,3.57.56,5.42h-18.6l.83-10.83h16.66C1856.26,61.26,1856.45,63.07,1856.63,64.82ZM1855,224.87a5.35,5.35,0,0,1-.28,1.66h-15a10.33,10.33,0,0,0-.14-1.66,12.38,12.38,0,0,1-.14-2h15.83A7.94,7.94,0,0,0,1855,224.87Zm.28-174.62c.18,1.85.37,3.79.55,5.83h-16.1l.83-11.66h14.16Q1855,47.48,1855.25,50.25Zm-1.67-14.72c.18,1.11.32,2.22.42,3.34a27.54,27.54,0,0,0,.41,3.05h-13.6q.27-1.66.42-3.33c.09-1.11.23-2.31.41-3.61l3.06-5.28h5l3.34,4.45Zm-.83,205.16h-11.66v-.28a8.23,8.23,0,0,1-.28-2.5h12.77a6.08,6.08,0,0,0-.28,2Zm-5.83-214.87,1.11,1.66h-2.22Z"/><path class="cls-1" d="M1885,33.31h14.43l1.95,8.61H1885Zm0,11.11h16.93l2.5,11.66H1885Zm0,15h20.26l2.22,10.83H1885Zm0,14.71h23.32l2.5,10.27H1885Zm13.88,24.43H1885V89.11h26.93l1.94,9.44h-14.71l-.28-1.94ZM1885,103.83h13.88V113H1885Zm0,15h13.88v8.33H1885Zm0,15h13.88v7.49H1885Zm0,14.71h13.88v6.94H1885Zm0,15h13.88v6.11H1885Zm0,14.72h13.88v5.55H1885Zm0,15h13.88v5H1885Zm0,14.71h13.88v4.44H1885Zm0,15h13.88v3.61H1885Zm0,15h13.88v2.78H1885Zm15.54-134.08h14.72l1.94,9.16h-14.71Zm3.34,15h14.71l1.66,8.33h-14.43Zm3.6,15h14.44l1.67,7.49H1909.1Zm3.34,14.71h14.43l1.39,6.94h-14.44Zm3.33,15h14.43l1.39,6.11h-14.43Zm18,16.1v-1.38H1946v5.55h-27.48l-1.11-5.55h14.43Zm-11.38,13.61H1946v5h-24.15Zm3.33,14.71H1946v4.44H1925.2Zm3.61,15H1946v3.61h-17.49Zm3.33,15h15v2.78h-14.16Zm1.11-204.6H1946v8.61h-13.88Zm0,11.11H1946V56.08h-13.88Zm0,15H1946V70.24h-13.88Zm0,14.71H1946V84.39h-13.88Zm0,15H1946v9.44h-13.88Zm0,14.72H1946V113h-13.88Zm0,15H1946v8.33h-13.88Zm0,15H1946v7.49h-13.88Zm0,14.71H1946v6.94h-13.88Zm0,15H1946v6.11h-13.88Z"/><path class="cls-1" d="M1971.28,237.91h15.27l-.55,2.78h-15.27Zm2.22-15h15l-.56,3.61h-15Zm2.23-15h14.71l-.56,4.44h-15Zm1.94-14.71h15l-.83,5h-14.72Zm2.22-15h14.71l-.83,5.55h-14.71Zm2.22-14.72h55l.83,6.11h-56.63Zm2.22-15h14.44l-1.11,6.94h-14.44Zm2.22-14.71H2001l-1.11,7.49h-14.44Zm2.22-15h14.44l-1.39,8.33h-14.43Zm2.22-15h14.16L2004,113h-14.43Zm2.22-14.72h14.16L2006,98.55h-14.16Zm14.72-4.72h-14.16l1.67-10.27h28l1.67,10.27h-14.71l-1.11-8.6Zm-10.55-25h23.87l1.67,10.83H1996Zm2.22-15H2019l1.67,11.66h-22.77Zm1.67-11.11h16.1l1.11,8.61h-18.6Zm10,55.8h14.44l1.38,9.44h-14.43Zm1.94,14.72h14.72l1.38,9.16h-14.71Zm2.22,15h14.72l1.39,8.33h-14.72Zm2.23,15h14.71l1.11,7.49h-14.71Zm2.22,14.71h14.71l1.11,6.94h-15Zm4.44,29.71h15l.83,5.55h-15Zm2.22,15h15l.83,5h-15Zm2.22,14.71h15l.83,4.44h-15Zm2.22,15h15l.56,3.61h-15Zm2.22,15h15l.56,2.78h-15Z"/><path class="cls-1" d="M2146.45,33.31h61.36v8.61h-61.36Zm13.88,15.27v7.5h-13.88V44.42h61.36v4.16Zm-13.88,10.83h13.88V70.24h-13.88Zm0,14.71h13.88V84.39h-13.88Zm0,15h13.88v9.44h-13.88Zm0,14.72h13.88V113h-13.88Zm56.08,23v.28h-56.08v-8.33h13.88v8.05Zm-56.08,6.94h56.08v7.49h-56.08Zm0,14.71h13.88v6.94h-13.88Zm0,15h13.88v6.11h-13.88Zm0,14.72h13.88v5.55h-13.88Zm0,15h13.88v5h-13.88Zm0,14.71h13.88v4.44h-13.88Zm0,15h13.88v3.61h-13.88Zm0,15h13.88v2.78h-13.88Z"/><path class="cls-1" d="M2293.86,56.08h-14.43q-1.39-7.5-7.78-7.5h-17.21q-5.28,0-6.94,7.5h-14.71A32.52,32.52,0,0,1,2235,44.42h55.8a23.39,23.39,0,0,1,3.05,11.38Zm-47.19,7.22v6.94h-13.88V59.41H2247A20.54,20.54,0,0,0,2246.67,63.3Zm-13.88,10.82h13.88V84.39h-13.88Zm0,15h13.88v9.44h-13.88Zm0,14.72h13.88V113h-13.88Zm0,15h13.88v8.33h-13.88Zm0,15h13.88v7.49h-13.88Zm0,14.71h13.88v6.94h-13.88Zm0,15h13.88v6.11h-13.88Zm0,14.72h13.88v5.55h-13.88Zm0,15h13.88v5h-13.88Zm13.88,19.15h-13.88v-4.44h13.88v4.44Zm-13.33,12.5a6.38,6.38,0,0,1-.27-2h16.1a9.26,9.26,0,0,0,6.11,3.61H2233.9C2233.71,226,2233.53,225.42,2233.34,224.87Zm9.16-189.2a18.46,18.46,0,0,1,9.72-2.36h22.21a22.67,22.67,0,0,1,8.61,2.78,19.3,19.3,0,0,1,6.38,5.83h-53A17.23,17.23,0,0,1,2242.5,35.67Zm41.79,203.77a11.82,11.82,0,0,1-2.36,1.25H2245a11.26,11.26,0,0,1-4.44-2.78h45.81C2285.63,238.47,2284.93,239,2284.29,239.44Zm9-14.57a5.35,5.35,0,0,1-.28,1.66h-18.6a5.82,5.82,0,0,0,3.89-3.61h15.27A7.94,7.94,0,0,0,2293.31,224.87ZM2280,63.57a23.7,23.7,0,0,0-.27-4.16h14.15V70.24H2280Zm0,10.55h13.88V84.39H2280Zm0,15h13.88v9.44H2280Zm0,14.72h13.88V113H2280Zm0,15h13.88v8.33H2280Zm0,15h13.88v7.49H2280Zm0,14.71h13.88v6.94H2280Zm0,15h13.88v6.11H2280Zm0,14.72h13.88v5.55H2280Zm0,15h13.88v5H2280Zm0,18.6v-3.89h13.88v4.44H2280Z"/><path class="cls-1" d="M2342.58,123c.09,1.3.14,2.69.14,4.17h-23.59v-8.33h23.32C2342.45,120.3,2342.49,121.69,2342.58,123Zm.14,18.32h-23.59v-7.49h23.59v7.49Zm-.14,10.83c-.09,1.11-.13,2.22-.13,3.33h-23.32v-6.94h23.59C2342.72,149.82,2342.67,151,2342.58,152.13Zm-.41-43.58a34.83,34.83,0,0,0,.28,4.44h-23a36.76,36.76,0,0,0,.28-4.44v-4.72h22.49Zm0,58.29a14.48,14.48,0,0,1-.28,2.78H2319.4v-6.11h22.77ZM2319.68,181v-2.77h21.93a14.54,14.54,0,0,0-.28,2.77v2.78H2320A13.8,13.8,0,0,1,2319.68,181Zm21.93-86.89a34.83,34.83,0,0,0,.28,4.44H2320a36.76,36.76,0,0,0,.28-4.44,46.53,46.53,0,0,1,.27-5h20.82A44.1,44.1,0,0,1,2341.61,94.11Zm-1.11,101.61v2.49h-19.71a12.39,12.39,0,0,1-.28-2.49v-2.5h20.27A12.56,12.56,0,0,0,2340.5,195.72Zm.28-116.32a43.93,43.93,0,0,0,.28,5h-20.27c0-1.66,0-3.33.14-5s.23-3.43.42-5.28h19.15C2340.68,76,2340.78,77.73,2340.78,79.4Zm-1.39,131a7.87,7.87,0,0,1-.28,1.94h-17.49a25.75,25.75,0,0,1-.27-4.44h18.32A12.56,12.56,0,0,0,2339.39,210.43Zm.28-145.61c.18,1.76.37,3.57.55,5.42h-18.6l.84-10.83h16.65C2339.3,61.26,2339.48,63.07,2339.67,64.82ZM2338,224.87a5.34,5.34,0,0,1-.27,1.66h-15a10.32,10.32,0,0,0-.13-1.66,11.28,11.28,0,0,1-.14-2h15.82A7.94,7.94,0,0,0,2338,224.87Zm.28-174.62q.27,2.78.56,5.83h-16.11l.84-11.66h14.16Q2338,47.48,2338.28,50.25Zm-1.66-14.72c.18,1.11.32,2.22.41,3.34a25.26,25.26,0,0,0,.42,3.05h-13.61q.28-1.66.42-3.33c.09-1.11.23-2.31.42-3.61l3.05-5.28h5l3.33,4.45Zm-.84,205.16h-11.66v-.28a8.57,8.57,0,0,1-.28-2.5h12.78a6.08,6.08,0,0,0-.28,2ZM2330,25.82l1.11,1.66h-2.22Z"/><path class="cls-1" d="M2441,237.91h15.27l-.55,2.78h-15.27Zm2.22-15h15l-.55,3.61h-15Zm2.22-15h14.72l-.56,4.44h-15Zm2-14.71h15l-.83,5h-14.72Zm2.22-15h14.71l-.83,5.55h-14.72Zm2.22-14.72h55l.83,6.11H2451Zm2.22-15h14.44l-1.11,6.94h-14.44Zm2.22-14.71h14.44l-1.11,7.49h-14.44Zm2.22-15h14.44l-1.39,8.33h-14.44Zm2.22-15h14.16l-1.11,9.16h-14.44Zm2.22-14.72h14.16l-1.39,9.44h-14.15Zm14.72-4.72h-14.16l1.66-10.27h28l1.67,10.27h-14.72l-1.11-8.6Zm-10.55-25H2491l1.67,10.83H2465.7Zm2.22-15h19.43l1.67,11.66h-22.77ZM2471,33.31h16.11l1.11,8.61h-18.6Zm10,55.8h14.43l1.39,9.44h-14.43Zm1.94,14.72h14.72L2499,113H2484.3Zm2.22,15h14.72l1.38,8.33h-14.71Zm2.22,15h14.72l1.11,7.49h-14.72Zm2.22,14.71h14.72l1.11,6.94h-15Zm4.45,29.71h15l.83,5.55h-15Zm2.22,15h15l.83,5h-15Zm2.22,14.71h15l.83,4.44h-15Zm2.22,15h15l.55,3.61h-15Zm2.22,15h15l.56,2.78h-15Z"/><path class="cls-1" d="M2543.71,33.31h32.48q11.92,0,18.88,8.61h-51.36ZM2602,56.08h-16.37q-4.17-6.39-13.33-7.5h-14.71v7.5h-13.88V44.42H2597A69,69,0,0,1,2602,56.08Zm-58.29,3.33h13.88V70.24h-13.88Zm0,14.71h13.88V84.39h-13.88Zm0,15h13.88v9.44h-13.88Zm0,14.72h13.88V113h-13.88Zm53.85,23.32h-53.85v-8.33h13.88v8.05h15.82q6.11,0,9.16-2.5c1.11-.92,2.31-2.78,3.61-5.55h14.71C2599.78,122,2598.67,124.74,2597.56,127.15Zm2.5,10.13c.74,1.2,1.48,2.55,2.22,4h-58.57v-7.49h53.85A29.52,29.52,0,0,1,2600.06,137.28Zm-56.35,11.24h13.88v6.94h-13.88Zm0,15h13.88v6.11h-13.88Zm0,14.72h13.88v5.55h-13.88Zm0,15h13.88v5h-13.88Zm0,14.71h13.88v4.44h-13.88Zm0,15h13.88v3.61h-13.88Zm43.72,16.52a22.93,22.93,0,0,1-2.64,1.25h-41.08v-2.78h46.36Q2588.67,238.75,2587.43,239.44Zm12.35-12.91h-23.59a22.71,22.71,0,0,0,5.83-3.61h19.71A13.08,13.08,0,0,1,2599.78,226.53Zm4-162c.28,1.77.51,3.66.69,5.7h-14.71a37.45,37.45,0,0,0-2.5-10.83h15.55C2603.21,61.07,2603.53,62.79,2603.81,64.54Zm-.56,44c-.27,1.48-.6,3-1,4.44h-14.15a43.21,43.21,0,0,0,.83-4.3c.18-1.39.46-3,.83-4.86h14.44C2603.85,105.49,2603.53,107.07,2603.25,108.55Zm2.78,43.3c.28,1.11.6,2.32,1,3.61h-15.54a29.14,29.14,0,0,0-1.25-3.88,13.06,13.06,0,0,0-1.81-3.06h16.66C2605.43,149.63,2605.75,150.74,2606,151.85Zm-.69,60.52h-15.55a11.39,11.39,0,0,0,.83-2.08,24.36,24.36,0,0,1,.84-2.36h15A40.58,40.58,0,0,1,2605.34,212.37Zm-.14-133.25c.09,1.67.14,3.43.14,5.27h-14.72V79.12a46.53,46.53,0,0,0-.27-5h14.43C2605,75.79,2605.1,77.45,2605.2,79.12Zm0,14.85c-.1,1.58-.24,3.1-.42,4.58h-14.43a36.74,36.74,0,0,0,.27-4.44v-5h14.72C2605.34,90.78,2605.29,92.4,2605.2,94Zm3.61,72.6c.09,1.11.14,2.13.14,3.05h-15c0-.92,0-1.94-.13-3.05a30.62,30.62,0,0,0-.42-3.06h15A30.62,30.62,0,0,1,2608.81,166.57Zm-.7,31.64h-14.43c.18-.92.32-1.75.41-2.49a20.75,20.75,0,0,0,.14-2.5H2609Zm1.39-14.43h-14.71v-5.55h14.71v5.55Z"/><path class="cls-1" d="M2634.48,33.31h26.1a15.83,15.83,0,0,1,8.33,2.36,35.47,35.47,0,0,1,7.49,6.25h-41.92Zm14.16,15.27v7.5h-14.16V44.42h43.87q3.6,4.72,6.66,9.16l.83,2.5h-17.77a7.09,7.09,0,0,0-1.38-1.53c-.56-.46-1-.88-1.39-1.25a23.28,23.28,0,0,0-4.3-3.47,8.79,8.79,0,0,0-4.59-1.25Zm-14.16,10.83h14.16V70.24h-14.16Zm0,14.71h14.16V84.39h-14.16Zm0,15h14.16v9.44h-14.16Zm0,14.72h14.16V113h-14.16Zm0,15h14.16v8.33h-14.16Zm0,15h14.16v7.49h-14.16Zm0,14.71h14.16v6.94h-14.16Zm0,15h14.16v6.11h-14.16Zm0,14.72h14.16v5.55h-14.16Zm0,15h14.16v5h-14.16Zm0,14.71h14.16v4.44h-14.16Zm0,15h14.16v3.61h-14.16Zm30.82,17.77h-30.82v-2.78H2670A18.48,18.48,0,0,1,2665.3,240.69Zm15.54-16.52c-.18.47-.37.88-.55,1.25l-.56,1.11h-22.48a13,13,0,0,0,6.38-3.61h17.77C2681.21,223.3,2681,223.71,2680.84,224.17Zm7.78-159.63a48.08,48.08,0,0,1,1.38,5.7h-15.26a54.57,54.57,0,0,0-1.95-5.83,31.09,31.09,0,0,0-2.5-5H2687C2687.51,61.07,2688.06,62.79,2688.62,64.54Zm-2.22,145.75a12.25,12.25,0,0,1-.84,2.08h-14.71a11.39,11.39,0,0,0,.83-2.08,24.36,24.36,0,0,1,.84-2.36h14.71A24,24,0,0,0,2686.4,210.29Zm4-14.57q-.14,1.11-.42,2.49h-14.43a10,10,0,0,0,.69-2.49,9.84,9.84,0,0,1,.7-2.5h14.16A9.84,9.84,0,0,0,2690.42,195.72Zm1.39-116.6q.42,2.5,1,5.27h-14.71a22.47,22.47,0,0,1-.83-3.19c-.19-1-.38-1.89-.56-2.64a17,17,0,0,1-.42-2.22,19.61,19.61,0,0,0-.41-2.22h15C2691.21,75.79,2691.53,77.45,2691.81,79.12Zm2.08,14.71c.18,1.67.37,3.24.56,4.72H2680a30.24,30.24,0,0,1-.69-4.86,25.7,25.7,0,0,0-.7-4.58h14.72C2693.52,90.6,2693.71,92.17,2693.89,93.83ZM2693.2,181c-.1.93-.24,1.85-.42,2.78h-14.16c.19-.93.32-1.85.42-2.78s.14-1.84.14-2.77h14.43C2693.43,179.16,2693.29,180.08,2693.2,181Zm1.66-14.29c-.09,1-.14,2-.14,2.91h-15c0-.92.05-1.89.14-2.91s.23-2.09.42-3.2h15C2695.09,164.62,2695,165.69,2694.86,166.71Zm.42-58.16a34.83,34.83,0,0,0,.28,4.44H2681.4l-.83-9.16H2695A39,39,0,0,1,2695.28,108.55Zm.69,43.58c-.09,1.11-.14,2.22-.14,3.33h-15a19.7,19.7,0,0,0,.28-3.33,25,25,0,0,1,.28-3.61h14.71C2696.11,149.82,2696.07,151,2696,152.13Zm0-29.15c.1,1.3.14,2.69.14,4.17H2682c0-1.48,0-2.87-.13-4.17s-.14-2.68-.14-4.16h14.15C2695.83,120.3,2695.88,121.69,2696,123Zm.14,18.32h-14.43a26.15,26.15,0,0,0,.27-3.6v-3.89h14.16v7.49Z"/><path class="cls-1" d="M2721.1,33.31H2735v8.61H2721.1Zm0,11.11H2735V56.08H2721.1Zm0,15H2735V70.24H2721.1Zm0,14.71H2735V84.39H2721.1Zm0,15H2735v9.44H2721.1Zm0,14.72H2735V113H2721.1Zm0,15H2735v8.33H2721.1Zm0,15H2735v7.49H2721.1Zm0,14.71H2735v6.94H2721.1Zm0,15H2735v6.11H2721.1Zm0,14.72H2735v5.55H2721.1Zm0,15H2735v5H2721.1ZM2735,212.37H2721.1v-4.44H2735v4.44Zm8.6,14.16h-21.37c-.19-.55-.38-1.11-.56-1.66a6.38,6.38,0,0,1-.27-2h16.1A9.26,9.26,0,0,0,2743.58,226.53Zm29,12.91a11.29,11.29,0,0,1-2.36,1.25h-36.92a11.26,11.26,0,0,1-4.44-2.78h45.81C2773.93,238.47,2773.24,239,2772.59,239.44Zm-6-16.52h15.26a8.39,8.39,0,0,0-.27,2,5.35,5.35,0,0,1-.28,1.66h-18.6A5.84,5.84,0,0,0,2766.63,222.92Zm1.66-189.61h13.88v8.61h-13.88Zm0,11.11h13.88V56.08h-13.88Zm0,15h13.88V70.24h-13.88Zm0,14.71h13.88V84.39h-13.88Zm0,15h13.88v9.44h-13.88Zm0,14.72h13.88V113h-13.88Zm0,15h13.88v8.33h-13.88Zm0,15h13.88v7.49h-13.88Zm0,14.71h13.88v6.94h-13.88Zm0,15h13.88v6.11h-13.88Zm0,14.72h13.88v5.55h-13.88Zm0,15h13.88v5h-13.88Zm0,18.6v-3.89h13.88v4.44h-13.88Z"/><path class="cls-1" d="M2868.51,41.92h-61.35V33.31h61.35ZM2866,56.08h-15.27l1.94-7.5h-45.52V44.42h61.35v2.22Zm-58.3,181.83h60.8v2.78h-60.8Zm1.39-15h15.27l-1.11,3.61h-15Zm3.61-15H2828l-1.11,4.44H2811.6Zm3.61-14.71h15.54l-1.39,5h-15.26Zm3.88-15h15.27l-1.39,5.55h-15.26Zm3.61-14.72h15.27l-1.39,6.11h-15.27Zm3.89-15H2843l-1.67,6.94h-15.54Zm3.61-14.71h15.27l-1.95,7.49h-15.27Zm3.61-15h15.54l-2.22,8.33H2833Zm3.88-15h15.27l-2.22,9.16h-15.27Zm3.61-14.72h15.27l-2.22,9.44h-15.27Zm3.89-15h15.27l-2.5,10.27h-15.55Zm3.61-14.71h15.27l-2.78,10.83h-15.27Z"/><path class="cls-1" d="M2917.23,123c.09,1.3.13,2.69.13,4.17h-23.59v-8.33h23.32C2917.09,120.3,2917.13,121.69,2917.23,123Zm.13,18.32h-23.59v-7.49h23.59v7.49Zm-.13,10.83c-.1,1.11-.14,2.22-.14,3.33h-23.32v-6.94h23.59C2917.36,149.82,2917.32,151,2917.23,152.13Zm-.42-43.58a34.83,34.83,0,0,0,.28,4.44H2894a34.83,34.83,0,0,0,.28-4.44v-4.72h22.49Zm0,58.29a14.48,14.48,0,0,1-.28,2.78H2894v-6.11h22.77ZM2894.32,181v-2.77h21.93A14.52,14.52,0,0,0,2916,181v2.78H2894.6A13.8,13.8,0,0,1,2894.32,181Zm21.93-86.89a34.83,34.83,0,0,0,.28,4.44H2894.6a36.76,36.76,0,0,0,.28-4.44,44.1,44.1,0,0,1,.28-5H2916A46.53,46.53,0,0,1,2916.25,94.11Zm-1.11,101.61v2.49h-19.71a13.09,13.09,0,0,1-.27-2.49v-2.5h20.26A12.56,12.56,0,0,0,2915.14,195.72Zm.28-116.32a43.93,43.93,0,0,0,.28,5h-20.27c0-1.66.05-3.33.14-5s.23-3.43.42-5.28h19.15A51.71,51.71,0,0,1,2915.42,79.4Zm-1.39,131a7.87,7.87,0,0,1-.28,1.94h-17.48a24.53,24.53,0,0,1-.28-4.44h18.32A12.56,12.56,0,0,0,2914,210.43Zm.28-145.61c.18,1.76.37,3.57.56,5.42h-18.6l.83-10.83h16.65C2913.94,61.26,2914.12,63.07,2914.31,64.82Zm-1.67,160.05a5.34,5.34,0,0,1-.27,1.66h-15a10.33,10.33,0,0,0-.14-1.66,11.28,11.28,0,0,1-.14-2h15.82A8.46,8.46,0,0,0,2912.64,224.87Zm.28-174.62q.27,2.78.56,5.83h-16.1l.83-11.66h14.16C2912.55,46.46,2912.74,48.4,2912.92,50.25Zm-1.66-14.72c.18,1.11.32,2.22.41,3.34a25.26,25.26,0,0,0,.42,3.05h-13.6c.18-1.11.32-2.22.41-3.33s.23-2.31.42-3.61l3-5.28h5l3.33,4.45Zm-.84,205.16h-11.66v-.28a8.64,8.64,0,0,1-.27-2.5h12.77a6.08,6.08,0,0,0-.28,2Zm-5.83-214.87,1.11,1.66h-2.22Z"/><path class="cls-1" d="M2942.62,33.31h26.1a15.83,15.83,0,0,1,8.33,2.36,35.47,35.47,0,0,1,7.49,6.25h-41.92Zm14.16,15.27v7.5h-14.16V44.42h43.87q3.6,4.72,6.66,9.16l.83,2.5h-17.76a7.41,7.41,0,0,0-1.39-1.53c-.56-.46-1-.88-1.39-1.25a23,23,0,0,0-4.3-3.47,8.78,8.78,0,0,0-4.58-1.25Zm-14.16,10.83h14.16V70.24h-14.16Zm0,14.71h14.16V84.39h-14.16Zm0,15h14.16v9.44h-14.16Zm0,14.72h14.16V113h-14.16Zm0,15h14.16v8.33h-14.16Zm0,15h14.16v7.49h-14.16Zm0,14.71h14.16v6.94h-14.16Zm0,15h14.16v6.11h-14.16Zm0,14.72h14.16v5.55h-14.16Zm0,15h14.16v5h-14.16Zm0,14.71h14.16v4.44h-14.16Zm0,15h14.16v3.61h-14.16Zm30.82,17.77h-30.82v-2.78h35.54A18.48,18.48,0,0,1,2973.44,240.69ZM2989,224.17c-.19.47-.38.88-.56,1.25l-.55,1.11h-22.49a13,13,0,0,0,6.38-3.61h17.77C2989.35,223.3,2989.17,223.71,2989,224.17Zm7.77-159.63a50.08,50.08,0,0,1,1.39,5.7h-15.27a54.57,54.57,0,0,0-2-5.83,31.92,31.92,0,0,0-2.49-5h16.65C2995.65,61.07,2996.2,62.79,2996.76,64.54Zm-2.22,145.75a13,13,0,0,1-.83,2.08H2979a11.39,11.39,0,0,0,.83-2.08,24.36,24.36,0,0,1,.84-2.36h14.71A24,24,0,0,0,2994.54,210.29Zm4-14.57c-.09.74-.23,1.57-.41,2.49h-14.44a10.54,10.54,0,0,0,.7-2.49,10.21,10.21,0,0,1,.69-2.5h14.16A9.84,9.84,0,0,0,2998.56,195.72ZM3000,79.12q.42,2.5,1,5.27h-14.71a22.47,22.47,0,0,1-.83-3.19c-.19-1-.38-1.89-.56-2.64a17,17,0,0,1-.41-2.22,22.18,22.18,0,0,0-.42-2.22h15C2999.35,75.79,2999.67,77.45,3000,79.12ZM3002,93.83c.19,1.67.37,3.24.56,4.72h-14.44a30.24,30.24,0,0,1-.69-4.86,25.7,25.7,0,0,0-.7-4.58h14.72C3001.66,90.6,3001.85,92.17,3002,93.83Zm-.69,87.17c-.1.93-.23,1.85-.42,2.78h-14.16a26.67,26.67,0,0,0,.42-2.78c.09-.92.14-1.84.14-2.77h14.44A26.89,26.89,0,0,0,3001.34,181Zm1.66-14.29c-.09,1-.13,2-.13,2.91h-15c0-.92,0-1.89.13-2.91s.23-2.09.42-3.2h15C3003.24,164.62,3003.1,165.69,3003,166.71Zm.42-58.16a34.83,34.83,0,0,0,.28,4.44h-14.16l-.83-9.16h14.43A37.1,37.1,0,0,1,3003.42,108.55Zm.7,43.58c-.1,1.11-.14,2.22-.14,3.33h-15a20.77,20.77,0,0,0,.27-3.33,25,25,0,0,1,.28-3.61h14.71C3004.25,149.82,3004.21,151,3004.12,152.13Zm0-29.15c.09,1.3.13,2.69.13,4.17H2990.1c0-1.48,0-2.87-.14-4.17s-.14-2.68-.14-4.16H3004C3004,120.3,3004,121.69,3004.12,123Zm.13,18.32h-14.43a26.25,26.25,0,0,0,.28-3.6v-3.89h14.15v7.49Z"/><path class="cls-1" d="M3029.52,237.91h15.26l-.55,2.78H3029Zm2.22-15h15l-.56,3.61h-15Zm2.22-15h14.71l-.55,4.44h-15Zm1.94-14.71h15l-.83,5h-14.72Zm2.22-15h14.71l-.83,5.55h-14.71Zm2.22-14.72h55l.83,6.11h-56.63Zm2.22-15H3057l-1.11,6.94h-14.44Zm2.22-14.71h14.44l-1.11,7.49h-14.44Zm2.22-15h14.44l-1.39,8.33h-14.43Zm2.23-15h14.15l-1.11,9.16h-14.43Zm2.22-14.72h14.15l-1.38,9.44h-14.16Zm14.71-4.72H3052l1.67-10.27h28l1.66,10.27h-14.71l-1.11-8.6Zm-10.55-25h23.88l1.66,10.83h-26.93Zm2.22-15h19.43l1.67,11.66h-22.76Zm1.67-11.11h16.1l1.11,8.61h-18.6Zm10,55.8h14.44l1.39,9.44h-14.44Zm1.94,14.72h14.72l1.39,9.16h-14.72Zm2.23,15h14.71l1.39,8.33H3075Zm2.22,15h14.71l1.11,7.49H3077Zm2.22,14.71h14.71l1.11,6.94h-15Zm4.44,29.71h15l.83,5.55h-15Zm2.22,15h15l.83,5h-15Zm2.22,14.71h15l.83,4.44h-15Zm2.22,15h15l.56,3.61h-15Zm2.22,15h15l.56,2.78h-15Z"/><path class="cls-1" d="M0,388.5H14.44l1.94,8.61H0Zm0,11.11H16.93l2.5,11.66H0Zm0,15H20.27l2.22,10.83H0Zm0,14.71H23.32l2.5,10.28H0Zm13.88,24.43H0V444.3H26.93l1.94,9.44H14.16l-.28-1.94ZM0,459H13.88v9.16H0Zm0,15H13.88v8.33H0Zm0,15H13.88v7.5H0Zm0,14.71H13.88v6.94H0Zm0,15H13.88v6.11H0Zm0,14.72H13.88V539H0Zm0,15H13.88v5H0Zm0,14.71H13.88v4.44H0Zm0,15H13.88v3.61H0Zm0,15H13.88v2.78H0ZM15.55,459H30.26l1.94,9.16H17.49Zm3.33,15H33.59l1.67,8.33H20.82Zm3.61,15H36.92l1.67,7.5H24.15Zm3.33,14.71H40.25l1.39,6.94H27.21Zm3.33,15H43.59L45,524.81H30.54Zm18,16.11v-1.39H61.08V539H33.59l-1.11-5.55H46.92Zm-11.38,13.6H61.08v5H36.92Zm3.33,14.71H61.08v4.44H40.25Zm3.61,15H61.08v3.61H43.59Zm3.33,15h15v2.78H46.92Zm1.11-204.6H61.08v8.61H47.19Zm0,11.11H61.08v11.66H47.19Zm0,15H61.08v10.83H47.19Zm0,14.71H61.08v10.28H47.19Zm0,15H61.08v9.44H47.19Zm0,14.72H61.08v9.16H47.19Zm0,15H61.08v8.33H47.19Zm0,15H61.08v7.5H47.19Zm0,14.71H61.08v6.94H47.19Zm0,15H61.08v6.11H47.19Z"/><path class="cls-1" d="M86.34,593.1h15.27l-.56,2.78H85.78Zm2.22-15h15l-.56,3.61H88Zm2.22-15h14.71l-.55,4.44H90Zm1.94-14.71h15l-.83,5H92.17Zm2.22-15h14.72l-.84,5.55H94.11Zm2.22-14.72h55l1.11,6.11H96.33Zm2-15h14.71l-1.11,6.94H98.27ZM101.33,489h14.43l-1.11,7.5H100.22Zm21.1-107.16-3.06-6.94-3.05,6.94H101.61l5.27-11.94h33.59l-5.27,11.94ZM103.55,474H118l-1.11,8.33H102.44Zm2.22-15h14.44l-1.39,9.16H104.38ZM108,444.3h14.16l-1.39,9.44H106.6Zm38.87-89.11L141,368.52H107.44l5.83-13.33H126l3,6.94,3-6.94ZM123,439.59H108.82l1.39-10.28h28.6l1.38,10.28H125.76l-1.39-9.44Zm-10.55-25h24.15l1.67,10.83H110.77Zm1.95-15h19.71L136,411.27H112.71Zm1.94-11.94h16.1l1.39,9.44H114.93Zm10,56.63H141l1.39,9.44H127.7ZM128.53,459h14.72l1.39,9.16h-15Zm1.95,15h15l1.11,8.33H131.87Zm2.22,15h15l1.11,7.5h-15Zm2.22,14.71h15l1.11,6.94H135.75Zm4.44,29.71h15l.84,5.55h-15Zm2.22,15h15l.84,5h-15Zm2.22,14.71h15l.84,4.44h-15Zm2.22,15h15l.55,3.61h-15Zm2.23,15h15l.55,2.78h-15Z"/><path class="cls-1" d="M249.85,411.27H235.41q-1.38-7.5-7.77-7.5H210.43q-5.28,0-6.94,7.5H188.77A32.36,32.36,0,0,1,191,399.61h55.8a23.39,23.39,0,0,1,3,11.38Zm-47.19,7.22v6.94H188.77V414.6h14.16A21.58,21.58,0,0,0,202.66,418.49Zm-13.89,10.82h13.89v10.28H188.77Zm0,15h13.89v9.44H188.77Zm0,14.72h13.89v9.16H188.77Zm0,15h13.89v8.33H188.77Zm0,15h13.89v7.5H188.77Zm0,14.71h13.89v6.94H188.77Zm0,15h13.89v6.11H188.77Zm0,14.72h13.89V539H188.77Zm0,15h13.89v5H188.77Zm13.89,19.15H188.77v-4.44h13.89v4.44Zm-13.33,12.5a6,6,0,0,1-.28-1.95h16.1a9.27,9.27,0,0,0,6.11,3.61H189.88Zm9.16-189.2a18.46,18.46,0,0,1,9.72-2.36h22.21a22.62,22.62,0,0,1,8.6,2.78,19.43,19.43,0,0,1,6.39,5.83h-53A17.26,17.26,0,0,1,198.49,390.86Zm41.78,203.77a10.84,10.84,0,0,1-2.36,1.25H201a11.08,11.08,0,0,1-4.44-2.78h45.8C241.61,593.66,240.92,594.17,240.27,594.63Zm9-14.57a5.34,5.34,0,0,1-.27,1.66h-18.6a5.8,5.8,0,0,0,3.88-3.61h15.27A8.53,8.53,0,0,0,249.29,580.06ZM236,418.76a23.5,23.5,0,0,0-.28-4.16h14.16v10.83H236Zm0,10.55h13.88v10.28H236Zm0,15h13.88v9.44H236ZM236,459h13.88v9.16H236Zm0,15h13.88v8.33H236Zm0,15h13.88v7.5H236Zm0,14.71h13.88v6.94H236Zm0,15h13.88v6.11H236Zm0,14.72h13.88V539H236Zm0,15h13.88v5H236Zm0,18.6v-3.89h13.88v4.44H236Z"/><path class="cls-1" d="M347.57,533.42h13.88V539H347.57Zm0,15h13.88v5H347.57Zm13.88,19.15H347.57v-4.44h13.88v4.44ZM362,411.27H347.84a28.19,28.19,0,0,1,2.5-11.66h55.53A23.39,23.39,0,0,1,408.92,411v.28H394.48c-.93-5-3.51-7.5-7.77-7.5H369.5C365.42,403.77,362.93,406.27,362,411.27Zm-.28,14.16H347.84V414.6h13.88v10.83Zm-13.88,3.88h13.88v10.28H347.84Zm0,15h13.88v9.44H347.84Zm0,14.72h13.88v9.16H347.84Zm0,21.1V474h13.88a31,31,0,0,0,.42,5.41,3.55,3.55,0,0,0,3.19,2.92H347.84Zm19.44,101.6H348.4a15.63,15.63,0,0,1-.56-3.61h15A6,6,0,0,0,367.28,581.72ZM349.79,489H404.2a18,18,0,0,1,4.16,7.5H357.84A14.5,14.5,0,0,1,349.79,489Zm48.3-97.72a19.43,19.43,0,0,1,6.39,5.83H351.73a17.19,17.19,0,0,1,6-5.83,22.59,22.59,0,0,1,9.3-2.78h22.49A22.62,22.62,0,0,1,398.09,391.28ZM358.81,594.63c-.65-.46-1.44-1-2.36-1.53h44.42a18.2,18.2,0,0,1-4.72,2.78h-35A10.84,10.84,0,0,1,358.81,594.63Zm34.28-16.52h15.27a15.53,15.53,0,0,1-.55,3.61h-18.6A5.78,5.78,0,0,0,393.09,578.11Zm1.67-163.51h14.16v10.83H395v-6.67A23.5,23.5,0,0,0,394.76,414.6Zm0,89.11h14.16v6.94H395v-4.16A10,10,0,0,0,394.76,503.71Zm.28-74.4h13.88v10.28H395Zm0,15h13.88v9.44H395Zm0,74.4h13.88v6.11H395Zm0,14.72h13.88V539H395Zm0,15h13.88v5H395Zm0,18.88v-4.17h13.88v4.44H395Z"/><path class="cls-1" d="M433.9,388.5h61.35v8.61H433.9Zm13.88,15.27v7.5H433.9V399.61h61.35v4.16ZM433.9,414.6h13.88v10.83H433.9Zm0,14.71h13.88v10.28H433.9Zm0,15h13.88v9.44H433.9Zm0,14.72h13.88v9.16H433.9Zm56.08,23v.28H433.9V474h13.88v8.05ZM433.9,489H490v7.5H433.9Zm0,14.71h13.88v6.94H433.9Zm0,15h13.88v6.11H433.9Zm0,14.72h13.88V539H433.9Zm0,15h13.88v5H433.9Zm0,14.71h13.88v4.44H433.9Zm0,15h13.88v3.61H433.9Zm0,15h61.35v2.78H433.9Z"/><path class="cls-1" d="M593,388.5h33q6.94,0,13.33,8.61H593Zm13.88,15.27v7.5H593V399.61h48.3a56.89,56.89,0,0,1,5.83,11.66h-15a20.47,20.47,0,0,0-5.13-5.41,11.88,11.88,0,0,0-7.08-2.09ZM593,414.6h13.88v10.83H593Zm0,14.71h13.88v10.28H593Zm0,15h13.88v9.44H593ZM593,459h13.88v9.16H593Zm0,15h13.88v8.33H593Zm48.86,22.49H593V489h13.88v3.05H622.4a10.18,10.18,0,0,0,7.49-3.05h15.82A39.49,39.49,0,0,1,641.83,496.5Zm-16.1,10.82H606.85v3.33H593v-6.94h42.2A14.73,14.73,0,0,1,625.73,507.32ZM593,518.7h13.88v6.11H593Zm0,14.72h13.88V539H593Zm0,15h13.88v5H593Zm0,14.71h13.88v4.44H593Zm0,15h13.88v3.61H593Zm0,15h13.88v2.78H593Zm56.77-173.36c.46,1.76.88,3.65,1.25,5.69H637.11a50.59,50.59,0,0,0-3.06-10.83h14.16Q649.05,417.1,649.74,419.74Zm-.14,58.57c-.37,1.39-.74,2.74-1.11,4H634.33c.37-1.29.74-2.64,1.11-4s.74-2.82,1.11-4.3h14.16C650.34,475.49,650,476.92,649.6,478.31Zm2.92-44c.09,1.67.23,3.43.41,5.28H639.05c-.18-1.67-.37-3.38-.55-5.14a47.09,47.09,0,0,0-.84-5.14h14.16A32,32,0,0,1,652.52,434.31Zm-.28,29.43a25.3,25.3,0,0,1-.7,4.44H637.66a25.56,25.56,0,0,0,.7-4.58c.09-1.57.23-3.1.41-4.58h13.88C652.47,460.68,652.33,462.26,652.24,463.74Zm1-16.66v3.61a19.2,19.2,0,0,1-.28,3.05h-13.6v-3.05a12.88,12.88,0,0,1,.28-3.05,3.29,3.29,0,0,1-.14-1.67,3.54,3.54,0,0,0-.14-1.67h13.88Z"/><path class="cls-1" d="M678.47,388.5h33.31q6.68,0,13.61,8.61H678.47Zm13.88,15.27v7.5H678.47V399.61h48.58a66.85,66.85,0,0,1,6.11,11.66H717.89a20.47,20.47,0,0,0-5.13-5.41,12.36,12.36,0,0,0-7.36-2.09ZM678.47,414.6h13.88v10.83H678.47Zm0,14.71h13.88v10.28H678.47Zm0,15h13.88v9.44H678.47Zm0,14.72h13.88v9.16H678.47Zm0,15h13.88v8.33H678.47Zm50,22.49h-50V489h13.88v3.05H707.9a10.17,10.17,0,0,0,7.49-3.05h16.94C730.84,492.15,729.55,494.65,728.44,496.5Zm-5.69,11.1a22.25,22.25,0,0,0,1.53,3H706.79a10.94,10.94,0,0,0-1.67-1.8c-.55-.46-1.11-1-1.66-1.53H692.35v3.33H678.47v-6.94h43.31l-.56.56Q722.06,505.94,722.75,507.6Zm-44.28,11.1h13.88v6.11H678.47Zm0,14.72h13.88V539H678.47Zm0,15h13.88v5H678.47Zm0,14.71h13.88v4.44H678.47Zm0,15h13.88v3.61H678.47Zm0,15h13.88v2.78H678.47Zm49.83-71.34a23.81,23.81,0,0,0,1,3H713.73c-.38-1.11-.74-2.17-1.11-3.19s-.74-2-1.11-2.92h15.82A24.5,24.5,0,0,1,728.3,521.76Zm3.61,14.16a10.21,10.21,0,0,0,.69,2.5V539H717.89a15.21,15.21,0,0,1-.83-2.78c-.19-.92-.37-1.84-.56-2.77h15C731.68,534.35,731.82,535.18,731.91,535.92Zm3.89-116.18c.46,1.76.87,3.65,1.25,5.69H722.89a84.15,84.15,0,0,0-3.33-10.83h14.71C734.83,416.27,735.33,418,735.8,419.74Zm-.14,58.57c-.37,1.39-.74,2.74-1.11,4H719.83a28.58,28.58,0,0,0,1.39-4c.37-1.39.74-2.82,1.11-4.3h14.44C736.4,475.49,736,476.92,735.66,478.31Zm-15.27,72.6c-.19-.74-.37-1.57-.56-2.5h15l1.11,5H721C720.76,552.48,720.57,551.65,720.39,550.91Zm2.5,12.21h15.27l.83,4.44H723.72Zm15.68-128.81q.13,2.51.42,5.28H724.83c-.18-1.67-.37-3.38-.55-5.14a47.09,47.09,0,0,0-.84-5.14h14.44A30.82,30.82,0,0,1,738.57,434.31Zm-.69,33.87H723.44l.84-9.16h14.43Q738.16,464,737.88,468.18Zm1.39-21.1v3.61a19.2,19.2,0,0,1-.28,3.05H724.83a13.31,13.31,0,0,0,.28-3.05,12.88,12.88,0,0,1,.28-3.05,3.29,3.29,0,0,1-.14-1.67,3.54,3.54,0,0,0-.14-1.67h14.16Zm-13.33,131h15.55l.83,3.61H726.5Zm3.06,15h15.82l.56,2.78H729.55Z"/><path class="cls-1" d="M769.8,388.5h61.35v8.61H769.8Zm13.88,15.27v7.5H769.8V399.61h61.35v4.16ZM769.8,414.6h13.88v10.83H769.8Zm0,14.71h13.88v10.28H769.8Zm0,15h13.88v9.44H769.8Zm0,14.72h13.88v9.16H769.8Zm56.08,23v.28H769.8V474h13.88v8.05ZM769.8,489h56.08v7.5H769.8Zm0,14.71h13.88v6.94H769.8Zm0,15h13.88v6.11H769.8Zm0,14.72h13.88V539H769.8Zm0,15h13.88v5H769.8Zm0,14.71h13.88v4.44H769.8Zm0,15h13.88v3.61H769.8Zm0,15h61.35v2.78H769.8Z"/><path class="cls-1" d="M917.21,411.27H902.77q-1.38-7.5-7.77-7.5H877.79q-5.28,0-6.94,7.5H856.13a32.36,32.36,0,0,1,2.23-11.66h55.8A23.39,23.39,0,0,1,917.21,411ZM870,418.49v6.94H856.13V414.6h14.16A21.58,21.58,0,0,0,870,418.49Zm-13.89,10.82H870v10.28H856.13Zm0,15H870v9.44H856.13Zm0,14.72H870v9.16H856.13Zm0,15H870v8.33H856.13Zm0,15H870v7.5H856.13Zm0,14.71H870v6.94H856.13Zm0,15H870v6.11H856.13Zm0,14.72H870V539H856.13Zm0,15H870v5H856.13ZM870,567.56H856.13v-4.44H870v4.44Zm-13.33,12.5a6,6,0,0,1-.28-1.95h16.1a9.27,9.27,0,0,0,6.11,3.61H857.25C857.06,581.17,856.87,580.61,856.69,580.06Zm9.16-189.2a18.46,18.46,0,0,1,9.72-2.36h22.21a22.62,22.62,0,0,1,8.6,2.78,19.43,19.43,0,0,1,6.39,5.83h-53A17.26,17.26,0,0,1,865.85,390.86Zm41.78,203.77a10.84,10.84,0,0,1-2.36,1.25H868.35a11.08,11.08,0,0,1-4.44-2.78h45.8C909,593.66,908.28,594.17,907.63,594.63Zm9-14.57a5.34,5.34,0,0,1-.27,1.66h-18.6a5.78,5.78,0,0,0,3.88-3.61h15.27A8.53,8.53,0,0,0,916.65,580.06Zm-13.32-161.3a23.5,23.5,0,0,0-.28-4.16h14.16v10.83H903.33Zm0,10.55h13.88v10.28H903.33Zm0,15h13.88v9.44H903.33Zm0,14.72h13.88v9.16H903.33Zm0,15h13.88v8.33H903.33Zm0,15h13.88v7.5H903.33Zm0,14.71h13.88v6.94H903.33Zm0,15h13.88v6.11H903.33Zm0,14.72h13.88V539H903.33Zm0,15h13.88v5H903.33Zm0,18.6v-3.89h13.88v4.44H903.33Z"/><path class="cls-1" d="M945,399.61h55.25a23.39,23.39,0,0,1,3,11.38v.28H988.83a10.47,10.47,0,0,0-2.22-5.69c-1.11-1.2-3-1.81-5.55-1.81H963.85q-5.28,0-6.94,7.5H942.19A36,36,0,0,1,945,399.61Zm11.11,18.88v6.94H942.19V414.6h14.16A21.58,21.58,0,0,0,956.08,418.49Zm-13.89,10.82h13.89v10.28H942.19Zm0,15h13.89v9.44H942.19Zm0,14.72h13.89v9.16H942.19Zm0,15h13.89v8.33H942.19Zm0,15h13.89v7.5H942.19Zm0,14.71h13.89v6.94H942.19Zm0,15h13.89v6.11H942.19Zm0,14.72h13.89V539H942.19Zm0,15h13.89v5H942.19Zm13.89,19.15H942.19v-4.44h13.89v4.44Zm8,14.16H943.3l-.55-1.66a6,6,0,0,1-.28-1.95H958.3Q960,580.9,964.13,581.72ZM952.74,390.86a16.83,16.83,0,0,1,8.89-2.36h22.21a22.62,22.62,0,0,1,8.6,2.78,19.43,19.43,0,0,1,6.39,5.83H946.36A19.63,19.63,0,0,1,952.74,390.86Zm41,203.77a10.84,10.84,0,0,1-2.36,1.25H954.41A11.08,11.08,0,0,1,950,593.1h45.8C995,593.66,994.34,594.17,993.69,594.63Zm-6-16.52H1003a8.53,8.53,0,0,0-.28,1.95,5.34,5.34,0,0,1-.27,1.66h-18.6A5.8,5.8,0,0,0,987.72,578.11Zm1.67-159.62V414.6h13.88v10.83H989.39Zm0,10.82h13.88v10.28H989.39Zm0,15h13.88v9.44H989.39Zm0,89.12h13.88V539H989.39Zm0,15h13.88v5H989.39Zm0,18.6v-3.89h13.88v4.44H989.39Z"/><path class="cls-1" d="M1028.25,388.5h13.88v8.61h-13.88Zm0,11.11h13.88v11.66h-13.88Zm0,15h13.88v10.83h-13.88Zm0,14.71h13.88v10.28h-13.88Zm0,15h13.88v9.44h-13.88Zm0,14.72h13.88v9.16h-13.88Zm0,15h13.88v8.33h-13.88Zm0,15h13.88v7.5h-13.88Zm0,14.71h13.88v6.94h-13.88Zm0,15h13.88v6.11h-13.88Zm0,14.72h13.88V539h-13.88Zm0,15h13.88v5h-13.88Zm13.88,19.15h-13.88v-4.44h13.88v4.44Zm8.61,14.16h-21.38l-.55-1.66a6,6,0,0,1-.28-1.95h16.1A9.22,9.22,0,0,0,1050.74,581.72Zm29,12.91a11.08,11.08,0,0,1-2.36,1.25h-36.92a11.08,11.08,0,0,1-4.44-2.78h45.8C1081.09,593.66,1080.4,594.17,1079.75,594.63Zm-6-16.52h15.27a8,8,0,0,0-.28,1.95,5.34,5.34,0,0,1-.27,1.66h-18.6A5.8,5.8,0,0,0,1073.78,578.11Zm1.67-189.61h13.88v8.61h-13.88Zm0,11.11h13.88v11.66h-13.88Zm0,15h13.88v10.83h-13.88Zm0,14.71h13.88v10.28h-13.88Zm0,15h13.88v9.44h-13.88Zm0,14.72h13.88v9.16h-13.88Zm0,15h13.88v8.33h-13.88Zm0,15h13.88v7.5h-13.88Zm0,14.71h13.88v6.94h-13.88Zm0,15h13.88v6.11h-13.88Zm0,14.72h13.88V539h-13.88Zm0,15h13.88v5h-13.88Zm0,18.6v-3.89h13.88v4.44h-13.88Z"/><path class="cls-1" d="M1114.31,388.5h33q6.93,0,13.32,8.61h-46.36Zm13.88,15.27v7.5h-13.88V399.61h48.31a57.4,57.4,0,0,1,5.83,11.66h-15a20.67,20.67,0,0,0-5.14-5.41,11.84,11.84,0,0,0-7.08-2.09Zm-13.88,10.83h13.88v10.83h-13.88Zm0,14.71h13.88v10.28h-13.88Zm0,15h13.88v9.44h-13.88Zm0,14.72h13.88v9.16h-13.88Zm0,15h13.88v8.33h-13.88Zm48.86,22.49h-48.86V489h13.88v3.05h15.55a10.15,10.15,0,0,0,7.49-3.05h15.83A40,40,0,0,1,1163.17,496.5Zm-16.1,10.82h-18.88v3.33h-13.88v-6.94h42.2A14.71,14.71,0,0,1,1147.07,507.32Zm-32.76,11.38h13.88v6.11h-13.88Zm0,14.72h13.88V539h-13.88Zm0,15h13.88v5h-13.88Zm0,14.71h13.88v4.44h-13.88Zm0,15h13.88v3.61h-13.88Zm0,15h13.88v2.78h-13.88Zm56.77-173.36c.46,1.76.88,3.65,1.25,5.69h-13.88a50,50,0,0,0-3-10.83h14.16Q1170.38,417.1,1171.08,419.74Zm-.14,58.57c-.37,1.39-.74,2.74-1.11,4h-14.15c.36-1.29.73-2.64,1.11-4s.73-2.82,1.11-4.3h14.16C1171.68,475.49,1171.31,476.92,1170.94,478.31Zm2.92-44q.14,2.51.42,5.28H1160.4c-.19-1.67-.38-3.38-.56-5.14a47.08,47.08,0,0,0-.83-5.14h14.16A33.19,33.19,0,0,1,1173.86,434.31Zm-.28,29.43a24.37,24.37,0,0,1-.69,4.44H1159a24.69,24.69,0,0,0,.69-4.58c.09-1.57.23-3.1.42-4.58H1174C1173.81,460.68,1173.67,462.26,1173.58,463.74Zm1-16.66v3.61a19.11,19.11,0,0,1-.27,3.05h-13.61v-3.05a12.88,12.88,0,0,1,.28-3.05,3.41,3.41,0,0,1-.14-1.67,3.42,3.42,0,0,0-.14-1.67h13.88Z"/><path class="cls-1" d="M1199.54,388.5h61.35v8.61h-61.35Zm13.88,15.27v7.5h-13.88V399.61h61.35v4.16Zm-13.88,10.83h13.88v10.83h-13.88Zm0,14.71h13.88v10.28h-13.88Zm0,15h13.88v9.44h-13.88Zm0,14.72h13.88v9.16h-13.88Zm56.07,23v.28h-56.07V474h13.88v8.05ZM1199.54,489h56.07v7.5h-56.07Zm0,14.71h13.88v6.94h-13.88Zm0,15h13.88v6.11h-13.88Zm0,14.72h13.88V539h-13.88Zm0,15h13.88v5h-13.88Zm0,14.71h13.88v4.44h-13.88Zm0,15h13.88v3.61h-13.88Zm0,15h61.35v2.78h-61.35Z"/><path class="cls-1" d="M1285.59,578.11h15.55v3.61h-15.55Zm0,15h15.55v2.78h-15.55Zm.84-204.6h13.88v8.61h-13.88Zm0,11.11h13.88v11.66h-13.88Zm0,15h13.88v10.83h-13.88Zm0,14.71h13.88v10.28h-13.88Zm0,15h13.88v9.44h-13.88Zm0,14.72h13.88v9.16h-13.88Zm0,15h13.88v8.33h-13.88Zm0,15h13.88v7.5h-13.88Zm0,14.71h13.88v6.94h-13.88Zm0,15h13.88v6.11h-13.88Zm0,14.72h13.88V539h-13.88Zm0,15h13.88v.83h-13.88Z"/><path class="cls-1" d="M1398.58,388.5h61.35v8.61h-61.35Zm13.88,15.27v7.5h-13.88V399.61h61.35v4.16Zm-13.88,10.83h13.88v10.83h-13.88Zm0,14.71h13.88v10.28h-13.88Zm0,15h13.88v9.44h-13.88Zm0,14.72h13.88v9.16h-13.88Zm56.08,23v.28h-56.08V474h13.88v8.05ZM1398.58,489h56.08v7.5h-56.08Zm0,14.71h13.88v6.94h-13.88Zm0,15h13.88v6.11h-13.88Zm0,14.72h13.88V539h-13.88Zm0,15h13.88v5h-13.88Zm0,14.71h13.88v4.44h-13.88Zm0,15h13.88v3.61h-13.88Zm0,15h61.35v2.78h-61.35Z"/><path class="cls-1" d="M1484.91,533.42h13.88V539h-13.88Zm0,15h13.88v5h-13.88Zm13.88,19.15h-13.88v-4.44h13.88v4.44Zm.56-156.29h-14.16a28,28,0,0,1,2.5-11.66h55.52a23.29,23.29,0,0,1,3.06,11.38v.28h-14.44q-1.39-7.5-7.77-7.5h-17.22Q1500.74,403.77,1499.35,411.27Zm-.28,14.16h-13.88V414.6h13.88v10.83Zm-13.88,3.88h13.88v10.28h-13.88Zm0,15h13.88v9.44h-13.88Zm0,14.72h13.88v9.16h-13.88Zm0,21.1V474h13.88a31,31,0,0,0,.42,5.41,3.55,3.55,0,0,0,3.19,2.92h-17.49Zm19.43,101.6h-18.87a15.1,15.1,0,0,1-.56-3.61h15A6,6,0,0,0,1504.62,581.72ZM1487.13,489h54.42a18,18,0,0,1,4.16,7.5h-50.52A14.55,14.55,0,0,1,1487.13,489Zm48.31-97.72a19.3,19.3,0,0,1,6.38,5.83h-52.74a17.19,17.19,0,0,1,6-5.83,22.55,22.55,0,0,1,9.3-2.78h22.48A22.67,22.67,0,0,1,1535.44,391.28Zm-39.28,203.35c-.65-.46-1.44-1-2.36-1.53h44.41a18.15,18.15,0,0,1-4.71,2.78h-35A10.61,10.61,0,0,1,1496.16,594.63Zm34.28-16.52h15.27a16.09,16.09,0,0,1-.55,3.61h-18.6A5.8,5.8,0,0,0,1530.44,578.11Zm1.67-163.51h14.16v10.83h-13.89v-6.67A23.7,23.7,0,0,0,1532.11,414.6Zm0,89.11h14.16v6.94h-13.89v-4.16A10.09,10.09,0,0,0,1532.11,503.71Zm.27-74.4h13.89v10.28h-13.89Zm0,15h13.89v9.44h-13.89Zm0,74.4h13.89v6.11h-13.89Zm0,14.72h13.89V539h-13.89Zm0,15h13.89v5h-13.89Zm0,18.88v-4.17h13.89v4.44h-13.89Z"/><path class="cls-1" d="M1632.88,388.5v8.61h-61.63V388.5Zm-23.6,15.27v7.5h-14.16v-7.5h-23.87v-4.16h61.63v4.16Zm-14.16,10.83h14.16v10.83h-14.16Zm0,14.71h14.16v10.28h-14.16Zm0,15h14.16v9.44h-14.16Zm0,14.72h14.16v9.16h-14.16Zm0,15h14.16v8.33h-14.16Zm0,15h14.16v7.5h-14.16Zm0,14.71h14.16v6.94h-14.16Zm0,15h14.16v6.11h-14.16Zm0,14.72h14.16V539h-14.16Zm0,15h14.16v5h-14.16Zm0,14.71h14.16v4.44h-14.16Zm0,15h14.16v3.61h-14.16Zm0,15h14.16v2.78h-14.16Z"/><path class="cls-1" d="M1634.82,593.1h15.27l-.56,2.78h-15.26Zm2.22-15h15l-.55,3.61h-15Zm2.22-15H1654l-.56,4.44h-15Zm2-14.71h15l-.84,5h-14.71Zm2.22-15h14.71l-.83,5.55h-14.72Zm2.22-14.72h55l.83,6.11h-56.63Zm2.22-15h14.43l-1.11,6.94h-14.43Zm2.22-14.71h14.44l-1.11,7.5H1649Zm2.22-15h14.44l-1.39,8.33h-14.44Zm2.22-15h14.16l-1.11,9.16h-14.44Zm2.22-14.72h14.16l-1.39,9.44h-14.16Zm14.72-4.71h-14.16l1.66-10.28h28l1.67,10.28H1674l-1.11-8.61Zm-10.55-25h23.87l1.67,10.83h-26.93Zm2.22-15h19.43l1.67,11.66h-22.77Zm1.66-11.11h16.1l1.11,8.61h-18.59Zm10,55.8h14.43l1.39,9.44h-14.43Zm1.94,14.72h14.71l1.39,9.16h-14.71Zm2.22,15h14.71l1.39,8.33h-14.71Zm2.22,15h14.72l1.11,7.5h-14.72Zm2.22,14.71h14.72l1.11,6.94h-15Zm4.44,29.71h15l.83,5.55h-15Zm2.23,15h15l.83,5h-15Zm2.22,14.71h15l.83,4.44h-15Zm2.22,15h15l.55,3.61h-15Zm2.22,15h15l.55,2.78h-15Z"/><path class="cls-1" d="M1738.09,388.5h14.44l2.5,8.61h-16.94Zm0,11.11h17.49l3.61,11.66h-21.1Zm0,15H1760l3.33,10.83h-25.26Zm14.71,25h-14.71V429.31h26.37l3.06,10.28H1752.8v0Zm-14.71,4.71h14.71v9.44h-14.71Zm0,14.72h14.71v9.16h-14.71Zm0,15h14.71v8.33h-14.71Zm0,15h14.71v7.5h-14.71Zm0,14.71h14.71v6.94h-14.71Zm0,15h14.71v6.11h-14.71Zm0,14.72h14.71V539h-14.71Zm0,15h14.71v5h-14.71Zm0,14.71h14.71v4.44h-14.71Zm0,15h14.71v3.61h-14.71Zm0,15h14.71v2.78h-14.71Zm16.1-148.8h14.72l2.77,9.44H1757Zm4.17,14.72h14.71l2.78,9.16h-14.72Zm4.44,15h14.71l2.5,8.33h-15Zm4.16,15h15l2.22,7.5h-15Zm4.17,14.71h15l2.22,6.94h-15.27Zm4.16,15h15.27l1.94,6.11h-15.27Zm4.44,14.72H1795l1.67,5.55h-15.55Zm4.17,15h15.54l1.39,5h-15.54Zm20.26,15.82.28-1.11h15l-1.11,4.44h-29.15l-1.11-4.44h15.82Zm-11.93,13.88h23l-.84,3.61h-21.09Zm4.16,15h14.71l-.83,2.78h-13Zm12.21-44.69h15l-1.39,5h-15Zm4.17-15h15l-1.39,5.55H1811.1Zm4.16-14.72h15l-1.66,6.11h-15Zm4.17-15h15l-1.95,6.94h-15Zm4.16-14.71h15l-2.22,7.5h-15Zm4.17-15h15l-2.5,8.33H1827.2Zm4.44-15h14.71l-2.5,9.16h-15ZM1838,444.3h14.72l-2.78,9.44h-14.72Zm16.1-5-.27.28h-14.44l2.78-10.28h26.65v10.28h-14.72Zm-7.77-24.71h22.49v10.83h-25.54Zm4.44-15h18v11.66h-21.38Zm3.06-11.11h15v8.61h-17.49Zm.27,55.8h14.72v9.44h-14.72Zm0,14.72h14.72v9.16h-14.72Zm0,15h14.72v8.33h-14.72Zm0,15h14.72v7.5h-14.72Zm0,14.71h14.72v6.94h-14.72Zm0,15h14.72v6.11h-14.72Zm0,14.72h14.72V539h-14.72Zm0,15h14.72v5h-14.72Zm0,14.71h14.72v4.44h-14.72Zm0,15h14.72v3.61h-14.72Zm0,15h14.72v2.78h-14.72Z"/><path class="cls-1" d="M1955.18,411.27h-14.43q-1.39-7.5-7.78-7.5h-17.21q-5.28,0-6.94,7.5h-14.71a32.35,32.35,0,0,1,2.22-11.66h55.8a23.39,23.39,0,0,1,3,11.38ZM1908,418.49v6.94h-13.88V414.6h14.15A21.58,21.58,0,0,0,1908,418.49Zm-13.88,10.82H1908v10.28h-13.88Zm0,15H1908v9.44h-13.88Zm0,14.72H1908v9.16h-13.88Zm0,15H1908v8.33h-13.88Zm0,15H1908v7.5h-13.88Zm0,14.71H1908v6.94h-13.88Zm0,15H1908v6.11h-13.88Zm0,14.72H1908V539h-13.88Zm0,15H1908v5h-13.88ZM1908,567.56h-13.88v-4.44H1908v4.44Zm-13.33,12.5a6,6,0,0,1-.28-1.95h16.11a9.22,9.22,0,0,0,6.1,3.61h-21.37C1895,581.17,1894.84,580.61,1894.66,580.06Zm9.16-189.2a18.46,18.46,0,0,1,9.72-2.36h22.21a22.62,22.62,0,0,1,8.6,2.78,19.43,19.43,0,0,1,6.39,5.83h-53A17.26,17.26,0,0,1,1903.82,390.86Zm41.78,203.77a10.84,10.84,0,0,1-2.36,1.25h-36.92a11.15,11.15,0,0,1-4.44-2.78h45.8C1946.94,593.66,1946.25,594.17,1945.6,594.63Zm9-14.57a5.35,5.35,0,0,1-.28,1.66h-18.6a5.78,5.78,0,0,0,3.88-3.61h15.27A8.46,8.46,0,0,0,1954.63,580.06Zm-13.33-161.3a23.5,23.5,0,0,0-.28-4.16h14.16v10.83H1941.3Zm0,10.55h13.88v10.28H1941.3Zm0,15h13.88v9.44H1941.3Zm0,14.72h13.88v9.16H1941.3Zm0,15h13.88v8.33H1941.3Zm0,15h13.88v7.5H1941.3Zm0,14.71h13.88v6.94H1941.3Zm0,15h13.88v6.11H1941.3Zm0,14.72h13.88V539H1941.3Zm0,15h13.88v5H1941.3Zm0,18.6v-3.89h13.88v4.44H1941.3Z"/><path class="cls-1" d="M1980.16,533.42H1994V539h-13.88Zm0,15H1994v5h-13.88ZM1994,567.56h-13.88v-4.44H1994v4.44Zm.56-156.29h-14.16a28,28,0,0,1,2.5-11.66h55.52a23.29,23.29,0,0,1,3.06,11.38v.28h-14.44q-1.39-7.5-7.77-7.5H2002.1Q1996,403.77,1994.6,411.27Zm-.28,14.16h-13.88V414.6h13.88v10.83Zm-13.88,3.88h13.88v10.28h-13.88Zm0,15h13.88v9.44h-13.88Zm0,14.72h13.88v9.16h-13.88Zm0,21.1V474h13.88a31,31,0,0,0,.42,5.41,3.55,3.55,0,0,0,3.19,2.92h-17.49Zm19.44,101.6H1981a15.1,15.1,0,0,1-.56-3.61h15A6,6,0,0,0,1999.88,581.72ZM1982.39,489h54.41a18,18,0,0,1,4.16,7.5h-50.52A14.5,14.5,0,0,1,1982.39,489Zm48.3-97.72a19.43,19.43,0,0,1,6.39,5.83h-52.75a17.19,17.19,0,0,1,6-5.83,22.59,22.59,0,0,1,9.3-2.78h22.48A22.61,22.61,0,0,1,2030.69,391.28Zm-39.28,203.35c-.65-.46-1.44-1-2.36-1.53h44.42a18.2,18.2,0,0,1-4.72,2.78h-35A10.61,10.61,0,0,1,1991.41,594.63Zm34.28-16.52H2041a15.53,15.53,0,0,1-.55,3.61h-18.6A5.8,5.8,0,0,0,2025.69,578.11Zm1.67-163.51h14.16v10.83h-13.88v-6.67A23.5,23.5,0,0,0,2027.36,414.6Zm0,89.11h14.16v6.94h-13.88v-4.16A10,10,0,0,0,2027.36,503.71Zm.28-74.4h13.88v10.28h-13.88Zm0,15h13.88v9.44h-13.88Zm0,74.4h13.88v6.11h-13.88Zm0,14.72h13.88V539h-13.88Zm0,15h13.88v5h-13.88Zm0,18.88v-4.17h13.88v4.44h-13.88Z"/><path class="cls-1" d="M2139.51,593.1h15.27l-.56,2.78H2139Zm2.22-15h15l-.55,3.61h-15Zm2.22-15h14.72l-.56,4.44h-15Zm1.94-14.71h15l-.84,5h-14.71Zm2.23-15h14.71L2162,539h-14.72Zm2.22-14.72h55l1.11,6.11H2149.5Zm1.94-15H2167l-1.11,6.94h-14.43ZM2154.5,489h14.44l-1.11,7.5h-14.44Zm2.22-15h14.44l-1.11,8.33h-14.44Zm2.22-15h14.44l-1.39,9.16h-14.44Zm2.22-14.72h14.16l-1.39,9.44h-14.15Zm15-4.71H2162l1.38-10.28H2192l1.39,10.28h-14.44l-1.39-9.44Zm3.89-84.4,3.33,13.33h-13.6l-5.83-13.33ZM2165.6,414.6h24.16l1.66,10.83h-27.48Zm2-15h19.71l1.94,11.66h-23.32Zm1.94-11.94h16.1l1.39,9.44H2168.1Zm6.11-5.83-5.28-11.94h13.61l3.05,11.94Zm3.89,62.46h14.71l1.39,9.44h-14.72Zm2.22,14.72h14.71l1.39,9.16h-15Zm1.94,15h15l1.11,8.33H2185Zm2.22,15h15l1.11,7.5h-15Zm2.22,14.71h15l1.11,6.94h-15.27Zm4.44,29.71h15l.84,5.55h-15Zm2.22,15h15l.83,5h-15Zm2.23,14.71h15l.83,4.44h-15Zm2.22,15h15l.55,3.61h-15Zm2.22,15h15l.55,2.78h-15Z"/><path class="cls-1" d="M2314.68,388.5h33q6.95,0,13.33,8.61h-46.36Zm13.88,15.27v7.5h-13.88V399.61H2363a56.89,56.89,0,0,1,5.83,11.66h-15a20.47,20.47,0,0,0-5.13-5.41,11.88,11.88,0,0,0-7.08-2.09Zm-13.88,10.83h13.88v10.83h-13.88Zm0,14.71h13.88v10.28h-13.88Zm0,15h13.88v9.44h-13.88Zm0,14.72h13.88v9.16h-13.88Zm0,15h13.88v8.33h-13.88Zm48.86,22.49h-48.86V489h13.88v3.05h15.55a10.18,10.18,0,0,0,7.49-3.05h15.83A40,40,0,0,1,2363.54,496.5Zm-16.1,10.82h-18.88v3.33h-13.88v-6.94h42.2A14.73,14.73,0,0,1,2347.44,507.32Zm-32.76,11.38h13.88v6.11h-13.88Zm0,14.72h13.88V539h-13.88Zm0,15h13.88v5h-13.88Zm0,14.71h13.88v4.44h-13.88Zm0,15h13.88v3.61h-13.88Zm0,15h13.88v2.78h-13.88Zm56.77-173.36c.46,1.76.88,3.65,1.25,5.69h-13.88a50.55,50.55,0,0,0-3.05-10.83h14.15Q2370.76,417.1,2371.45,419.74Zm-.14,58.57c-.37,1.39-.74,2.74-1.11,4H2356c.37-1.29.74-2.64,1.11-4s.74-2.82,1.11-4.3h14.16C2372.05,475.49,2371.68,476.92,2371.31,478.31Zm2.92-44c.09,1.67.23,3.43.41,5.28h-13.88c-.18-1.67-.37-3.38-.55-5.14a49.63,49.63,0,0,0-.83-5.14h14.15A32,32,0,0,1,2374.23,434.31Zm-.28,29.43a25.3,25.3,0,0,1-.7,4.44h-13.87a26.48,26.48,0,0,0,.69-4.58c.09-1.57.23-3.1.42-4.58h13.88C2374.18,460.68,2374,462.26,2374,463.74Zm1-16.66v3.61a18.09,18.09,0,0,1-.28,3.05H2361v-3.05a12.88,12.88,0,0,1,.28-3.05,3.29,3.29,0,0,1-.14-1.67,3.54,3.54,0,0,0-.14-1.67h13.88Z"/><path class="cls-1" d="M2400.18,388.5h33.32q6.66,0,13.6,8.61h-46.92Zm13.88,15.27v7.5h-13.88V399.61h48.58a66.85,66.85,0,0,1,6.11,11.66H2439.6a20.47,20.47,0,0,0-5.13-5.41,12.36,12.36,0,0,0-7.36-2.09Zm-13.88,10.83h13.88v10.83h-13.88Zm0,14.71h13.88v10.28h-13.88Zm0,15h13.88v9.44h-13.88Zm0,14.72h13.88v9.16h-13.88Zm0,15h13.88v8.33h-13.88Zm50,22.49h-50V489h13.88v3.05h15.55a10.15,10.15,0,0,0,7.49-3.05H2454C2452.55,492.15,2451.26,494.65,2450.15,496.5Zm-5.69,11.1a22.25,22.25,0,0,0,1.53,3H2428.5a10.94,10.94,0,0,0-1.67-1.8c-.55-.46-1.11-1-1.66-1.53h-11.11v3.33h-13.88v-6.94h43.31l-.56.56Q2443.77,505.94,2444.46,507.6Zm-44.28,11.1h13.88v6.11h-13.88Zm0,14.72h13.88V539h-13.88Zm0,15h13.88v5h-13.88Zm0,14.71h13.88v4.44h-13.88Zm0,15h13.88v3.61h-13.88Zm0,15h13.88v2.78h-13.88ZM2450,521.76a23.81,23.81,0,0,0,1,3h-15.54c-.37-1.11-.74-2.17-1.11-3.19s-.74-2-1.11-2.92H2449A23,23,0,0,1,2450,521.76Zm3.61,14.16a9.84,9.84,0,0,0,.7,2.5V539H2439.6a15.21,15.21,0,0,1-.83-2.78c-.19-.92-.37-1.84-.56-2.77h15C2453.39,534.35,2453.53,535.18,2453.62,535.92Zm3.89-116.18c.46,1.76.87,3.65,1.25,5.69H2444.6a84.15,84.15,0,0,0-3.33-10.83H2456C2456.54,416.27,2457,418,2457.51,419.74Zm-.14,58.57c-.37,1.39-.74,2.74-1.11,4h-14.71a29.88,29.88,0,0,0,1.38-4c.37-1.39.74-2.82,1.11-4.3h14.44C2458.11,475.49,2457.74,476.92,2457.37,478.31Zm-15.27,72.6c-.19-.74-.37-1.57-.55-2.5h15l1.11,5h-15C2442.47,552.48,2442.28,551.65,2442.1,550.91Zm2.5,12.21h15.27l.83,4.44h-15.27Zm15.68-128.81c.1,1.67.23,3.43.42,5.28h-14.16c-.18-1.67-.37-3.38-.55-5.14a47.09,47.09,0,0,0-.84-5.14h14.44A30.82,30.82,0,0,1,2460.28,434.31Zm-.69,33.87h-14.44L2446,459h14.43Q2459.87,464,2459.59,468.18Zm1.39-21.1v3.61a19.2,19.2,0,0,1-.28,3.05h-14.16a13.31,13.31,0,0,0,.28-3.05,12.88,12.88,0,0,1,.28-3.05A3.29,3.29,0,0,1,2447,446a3.54,3.54,0,0,0-.14-1.67H2461Zm-13.33,131h15.55l.83,3.61h-15.82Zm3.06,15h15.82l.56,2.78h-15.83Z"/><path class="cls-1" d="M2552.59,411.27h-14.44q-1.4-7.5-7.77-7.5h-17.21q-5.28,0-6.94,7.5h-14.72a32.56,32.56,0,0,1,2.22-11.66h55.8a23.29,23.29,0,0,1,3.06,11.38Zm-47.2,7.22v6.94h-13.88V414.6h14.16A20.54,20.54,0,0,0,2505.39,418.49Zm-13.88,10.82h13.88v10.28h-13.88Zm0,15h13.88v9.44h-13.88Zm0,14.72h13.88v9.16h-13.88Zm0,15h13.88v8.33h-13.88Zm0,15h13.88v7.5h-13.88Zm0,14.71h13.88v6.94h-13.88Zm0,15h13.88v6.11h-13.88Zm0,14.72h13.88V539h-13.88Zm0,15h13.88v5h-13.88Zm13.88,19.15h-13.88v-4.44h13.88v4.44Zm-13.32,12.5a6,6,0,0,1-.28-1.95h16.1a9.22,9.22,0,0,0,6.11,3.61h-21.38Zm9.16-189.2a18.46,18.46,0,0,1,9.72-2.36h22.21a22.62,22.62,0,0,1,8.6,2.78,19.43,19.43,0,0,1,6.39,5.83h-53A17.26,17.26,0,0,1,2501.23,390.86ZM2543,594.63a11.08,11.08,0,0,1-2.36,1.25h-36.92a11.08,11.08,0,0,1-4.44-2.78h45.8C2544.35,593.66,2543.66,594.17,2543,594.63Zm9-14.57a5.08,5.08,0,0,1-.28,1.66h-18.59a5.8,5.8,0,0,0,3.88-3.61h15.27A8,8,0,0,0,2552,580.06Zm-13.32-161.3a23.5,23.5,0,0,0-.28-4.16h14.16v10.83h-13.88Zm0,10.55h13.88v10.28h-13.88Zm0,15h13.88v9.44h-13.88Zm0,14.72h13.88v9.16h-13.88Zm0,15h13.88v8.33h-13.88Zm0,15h13.88v7.5h-13.88Zm0,14.71h13.88v6.94h-13.88Zm0,15h13.88v6.11h-13.88Zm0,14.72h13.88V539h-13.88Zm0,15h13.88v5h-13.88Zm0,18.6v-3.89h13.88v4.44h-13.88Z"/><path class="cls-1" d="M2580.35,399.61h55.24a23.29,23.29,0,0,1,3.06,11.38v.28h-14.44a10.47,10.47,0,0,0-2.22-5.69c-1.11-1.2-3-1.81-5.55-1.81h-17.21q-5.28,0-6.94,7.5h-14.72A35.72,35.72,0,0,1,2580.35,399.61Zm11.1,18.88v6.94h-13.88V414.6h14.16A20.54,20.54,0,0,0,2591.45,418.49Zm-13.88,10.82h13.88v10.28h-13.88Zm0,15h13.88v9.44h-13.88Zm0,14.72h13.88v9.16h-13.88Zm0,15h13.88v8.33h-13.88Zm0,15h13.88v7.5h-13.88Zm0,14.71h13.88v6.94h-13.88Zm0,15h13.88v6.11h-13.88Zm0,14.72h13.88V539h-13.88Zm0,15h13.88v5h-13.88Zm13.88,19.15h-13.88v-4.44h13.88v4.44Zm8.05,14.16h-20.82l-.55-1.66a6,6,0,0,1-.28-1.95h15.82C2594.78,580,2596.73,581.17,2599.5,581.72Zm-11.38-190.86a16.79,16.79,0,0,1,8.88-2.36h22.21a22.61,22.61,0,0,1,8.61,2.78,19.3,19.3,0,0,1,6.38,5.83h-52.46A19.63,19.63,0,0,1,2588.12,390.86Zm41,203.77a11.08,11.08,0,0,1-2.36,1.25h-36.92a11.18,11.18,0,0,1-4.45-2.78h45.81C2630.41,593.66,2629.71,594.17,2629.07,594.63Zm-6-16.52h15.27a8,8,0,0,0-.28,1.95,5.08,5.08,0,0,1-.28,1.66h-18.6A5.79,5.79,0,0,0,2623.1,578.11Zm1.67-159.62V414.6h13.88v10.83h-13.88Zm0,10.82h13.88v10.28h-13.88Zm0,15h13.88v9.44h-13.88Zm0,89.12h13.88V539h-13.88Zm0,15h13.88v5h-13.88Zm0,18.6v-3.89h13.88v4.44h-13.88Z"/><path class="cls-1" d="M2663.63,388.5h13.88v8.61h-13.88Zm0,11.11h13.88v11.66h-13.88Zm0,15h13.88v10.83h-13.88Zm0,14.71h13.88v10.28h-13.88Zm0,15h13.88v9.44h-13.88Zm0,14.72h13.88v9.16h-13.88Zm0,15h13.88v8.33h-13.88Zm0,15h13.88v7.5h-13.88Zm0,14.71h13.88v6.94h-13.88Zm0,15h13.88v6.11h-13.88Zm0,14.72h13.88V539h-13.88Zm0,15h13.88v5h-13.88Zm13.88,19.15h-13.88v-4.44h13.88v4.44Zm8.61,14.16h-21.38c-.19-.55-.37-1.11-.55-1.66a6,6,0,0,1-.28-1.95H2680A9.22,9.22,0,0,0,2686.12,581.72Zm29,12.91a11.08,11.08,0,0,1-2.36,1.25h-36.93a11.22,11.22,0,0,1-4.44-2.78h45.81C2716.47,593.66,2715.77,594.17,2715.13,594.63Zm-6-16.52h15.27a8,8,0,0,0-.28,1.95,5.35,5.35,0,0,1-.28,1.66h-18.6A5.79,5.79,0,0,0,2709.16,578.11Zm1.66-189.61h13.89v8.61h-13.89Zm0,11.11h13.89v11.66h-13.89Zm0,15h13.89v10.83h-13.89Zm0,14.71h13.89v10.28h-13.89Zm0,15h13.89v9.44h-13.89Zm0,14.72h13.89v9.16h-13.89Zm0,15h13.89v8.33h-13.89Zm0,15h13.89v7.5h-13.89Zm0,14.71h13.89v6.94h-13.89Zm0,15h13.89v6.11h-13.89Zm0,14.72h13.89V539h-13.89Zm0,15h13.89v5h-13.89Zm0,18.6v-3.89h13.89v4.44h-13.89Z"/><path class="cls-1" d="M2750,388.5h33.31q6.66,0,13.6,8.61H2750Zm13.88,15.27v7.5H2750V399.61h48.58a67.54,67.54,0,0,1,6.11,11.66h-15.27a20.35,20.35,0,0,0-5.14-5.41,12.33,12.33,0,0,0-7.35-2.09ZM2750,414.6h13.88v10.83H2750Zm0,14.71h13.88v10.28H2750Zm0,15h13.88v9.44H2750Zm0,14.72h13.88v9.16H2750Zm0,15h13.88v8.33H2750Zm50,22.49h-50V489h13.88v3.05h15.54a10.19,10.19,0,0,0,7.5-3.05h16.93Q2801.6,493.73,2799.94,496.5Zm-5.69,11.1a23.43,23.43,0,0,0,1.52,3h-17.49a10.91,10.91,0,0,0-1.66-1.8c-.56-.46-1.11-1-1.67-1.53h-11.1v3.33H2750v-6.94h43.31l-.56.56C2793.28,505.38,2793.78,506.49,2794.25,507.6ZM2750,518.7h13.88v6.11H2750Zm0,14.72h13.88V539H2750Zm0,15h13.88v5H2750Zm0,14.71h13.88v4.44H2750Zm0,15h13.88v3.61H2750Zm0,15h13.88v2.78H2750Zm49.83-71.34a23.81,23.81,0,0,0,1,3h-15.55c-.37-1.11-.74-2.17-1.11-3.19s-.74-2-1.11-2.92h15.83A24.5,24.5,0,0,1,2799.8,521.76Zm3.61,14.16a10.21,10.21,0,0,0,.69,2.5V539h-14.71a15.21,15.21,0,0,1-.83-2.78c-.19-.92-.38-1.84-.56-2.77h15C2803.17,534.35,2803.31,535.18,2803.41,535.92Zm3.88-116.18c.46,1.76.88,3.65,1.25,5.69h-14.15a82.59,82.59,0,0,0-3.34-10.83h14.72Q2806.6,417.1,2807.29,419.74Zm-.13,58.57c-.38,1.39-.75,2.74-1.12,4h-14.71a28.58,28.58,0,0,0,1.39-4c.37-1.39.74-2.82,1.11-4.3h14.44Zm-15.27,72.6c-.19-.74-.38-1.57-.56-2.5h15l1.11,5h-15C2792.26,552.48,2792.07,551.65,2791.89,550.91Zm2.5,12.21h15.26l.84,4.44h-15.27Zm15.68-128.81q.13,2.51.42,5.28h-14.16c-.19-1.67-.37-3.38-.56-5.14a44.79,44.79,0,0,0-.83-5.14h14.44A32,32,0,0,1,2810.07,434.31Zm-.69,33.87h-14.44l.83-9.16h14.44Q2809.66,464,2809.38,468.18Zm1.38-21.1v3.61a19.11,19.11,0,0,1-.27,3.05h-14.16a13.31,13.31,0,0,0,.28-3.05,13.53,13.53,0,0,1,.27-3.05,3.4,3.4,0,0,1-.13-1.67,3.54,3.54,0,0,0-.14-1.67h14.15Zm-13.32,131H2813l.83,3.61H2798Zm3,15h15.83l.55,2.78h-15.82Z"/><path class="cls-1" d="M2841.58,593.1h15.26l-.55,2.78H2841Zm2.22-15h15l-.56,3.61h-15Zm2.22-15h14.71l-.55,4.44h-15Zm1.94-14.71h15l-.83,5h-14.71Zm2.22-15h14.72l-.84,5.55h-14.71Zm2.22-14.72h55l.83,6.11h-56.63Zm2.22-15h14.44l-1.11,6.94h-14.44Zm2.22-14.71h14.44l-1.11,7.5h-14.44Zm2.23-15h14.43l-1.39,8.33h-14.43Zm2.22-15h14.15l-1.11,9.16H2859.9Zm2.22-14.72h14.16l-1.39,9.44h-14.16Zm14.71-4.71h-14.16l1.67-10.28h28l1.66,10.28h-14.71l-1.11-8.61Zm-10.55-25h23.88l1.66,10.83h-26.93Zm2.22-15h19.44l1.66,11.66h-22.76Zm1.67-11.11h16.1l1.11,8.61h-18.6Zm10,55.8H2896l1.39,9.44h-14.44ZM2883.5,459h14.71l1.39,9.16h-14.72Zm2.22,15h14.71l1.39,8.33H2887.1Zm2.22,15h14.71l1.11,7.5h-14.71Zm2.22,14.71h14.71l1.11,6.94h-15Zm4.44,29.71h15l.83,5.55h-15Zm2.22,15h15l.83,5h-15Zm2.22,14.71h15l.84,4.44h-15Zm2.22,15h15l.56,3.61h-15Zm2.22,15h15l.56,2.78h-15Z"/><path class="cls-1" d="M3016.75,388.5h26.09a15.81,15.81,0,0,1,8.33,2.36,35.77,35.77,0,0,1,7.5,6.25h-41.92Zm14.15,15.27v7.5h-14.15V399.61h43.86q3.6,4.72,6.66,9.16l.83,2.5h-17.76a7.68,7.68,0,0,0-1.39-1.53,17.15,17.15,0,0,1-1.39-1.25,23,23,0,0,0-4.3-3.47,8.78,8.78,0,0,0-4.58-1.25Zm-14.15,10.83h14.15v10.83h-14.15Zm0,14.71h14.15v10.28h-14.15Zm0,15h14.15v9.44h-14.15Zm0,14.72h14.15v9.16h-14.15Zm0,15h14.15v8.33h-14.15Zm0,15h14.15v7.5h-14.15Zm0,14.71h14.15v6.94h-14.15Zm0,15h14.15v6.11h-14.15Zm0,14.72h14.15V539h-14.15Zm0,15h14.15v5h-14.15Zm0,14.71h14.15v4.44h-14.15Zm0,15h14.15v3.61h-14.15Zm30.81,17.77h-30.81V593.1h35.53A18.2,18.2,0,0,1,3047.56,595.88Zm15.55-16.52c-.19.47-.38.88-.56,1.25l-.55,1.11h-22.49a13,13,0,0,0,6.38-3.61h17.77C3063.48,578.49,3063.29,578.9,3063.11,579.36Zm7.77-159.62a47.4,47.4,0,0,1,1.39,5.69H3057a56.89,56.89,0,0,0-1.94-5.83,32.83,32.83,0,0,0-2.5-5h16.65C3069.77,416.27,3070.32,418,3070.88,419.74Zm-2.22,145.74a12.15,12.15,0,0,1-.83,2.08h-14.72a12.25,12.25,0,0,0,.84-2.08,24.89,24.89,0,0,1,.83-2.36h14.71A24.89,24.89,0,0,0,3068.66,565.48Zm4-14.57c-.09.74-.23,1.57-.41,2.5h-14.44a10.74,10.74,0,0,0,.7-2.5,10.21,10.21,0,0,1,.69-2.5h14.16A10.27,10.27,0,0,0,3072.68,550.91Zm1.39-116.6q.42,2.51,1,5.28h-14.71a22.94,22.94,0,0,1-.83-3.2c-.19-1-.37-1.89-.56-2.63a19,19,0,0,1-.41-2.23q-.15-1.09-.42-2.22h15C3073.47,431,3073.79,432.65,3074.07,434.31Zm2.08,14.71c.19,1.67.37,3.24.56,4.72h-14.44a30.28,30.28,0,0,1-.69-4.85,26.6,26.6,0,0,0-.69-4.59h14.71C3075.78,445.79,3076,447.36,3076.15,449Zm-.69,87.17A26.27,26.27,0,0,1,3075,539h-14.15c.18-.92.32-1.85.41-2.78s.14-1.84.14-2.77h14.44A26.89,26.89,0,0,0,3075.46,536.19Zm1.67-14.29c-.1,1-.14,2-.14,2.91h-15c0-.92,0-1.89.13-2.91s.24-2.09.42-3.2h15C3077.36,519.81,3077.22,520.88,3077.13,521.9Zm.41-58.16a34.83,34.83,0,0,0,.28,4.44h-14.16l-.83-9.16h14.43A37.1,37.1,0,0,1,3077.54,463.74Zm.7,43.58c-.1,1.11-.14,2.22-.14,3.33h-15a20.77,20.77,0,0,0,.27-3.33,26.51,26.51,0,0,1,.28-3.61h14.72C3078.38,505,3078.33,506.21,3078.24,507.32Zm0-29.15c.09,1.3.14,2.69.14,4.17h-14.16c0-1.48,0-2.87-.14-4.17s-.14-2.68-.14-4.16h14.16C3078.1,475.49,3078.14,476.88,3078.24,478.17Zm.14,18.33h-14.44a26.51,26.51,0,0,0,.28-3.61V489h14.16v7.5Z"/><path class="cls-1" d="M3103.36,388.5h61.35v8.61h-61.35Zm13.88,15.27v7.5h-13.88V399.61h61.35v4.16Zm-13.88,10.83h13.88v10.83h-13.88Zm0,14.71h13.88v10.28h-13.88Zm0,15h13.88v9.44h-13.88Zm0,14.72h13.88v9.16h-13.88Zm56.08,23v.28h-56.08V474h13.88v8.05ZM3103.36,489h56.08v7.5h-56.08Zm0,14.71h13.88v6.94h-13.88Zm0,15h13.88v6.11h-13.88Zm0,14.72h13.88V539h-13.88Zm0,15h13.88v5h-13.88Zm0,14.71h13.88v4.44h-13.88Zm0,15h13.88v3.61h-13.88Zm0,15h61.35v2.78h-61.35Z"/><path class="cls-1" d="M3189.69,388.5h14.16v8.61h-14.16Zm0,11.11h14.16v11.66h-14.16Zm0,15h14.16v10.83h-14.16Zm0,14.71h14.16v10.28h-14.16Zm0,15h14.16v9.44h-14.16Zm0,14.72h14.16v9.16h-14.16Zm0,15h14.16v8.33h-14.16Zm0,15h14.16v7.5h-14.16Zm0,14.71h14.16v6.94h-14.16Zm0,15h14.16v6.11h-14.16Zm0,14.72h14.16V539h-14.16Zm0,15h14.16v5h-14.16Zm0,14.71h14.16v4.44h-14.16Zm0,15h14.16v3.61h-14.16Zm0,15h61.63v2.78h-61.63Z"/><path class="cls-1" d="M3276.59,593.1h15.26l-.55,2.78H3276Zm2.22-15h15l-.56,3.61h-15Zm2.22-15h14.71l-.55,4.44h-15Zm1.94-14.71h15l-.83,5h-14.71Zm2.22-15h14.72l-.84,5.55h-14.71Zm2.22-14.72h55l.83,6.11h-56.63Zm2.22-15h14.44l-1.11,6.94h-14.44Zm2.22-14.71h14.44l-1.11,7.5h-14.44Zm2.23-15h14.43l-1.39,8.33h-14.43Zm2.22-15h14.15l-1.11,9.16h-14.43Zm2.22-14.72h14.15l-1.38,9.44h-14.16Zm14.71-4.71h-14.16l1.67-10.28h28l1.66,10.28h-14.71l-1.11-8.61Zm-10.55-25h23.88l1.66,10.83h-26.93Zm2.22-15h19.43l1.67,11.66h-22.76Zm1.67-11.11h16.1l1.11,8.61h-18.6Zm10,55.8H3331l1.39,9.44H3318ZM3318.5,459h14.72l1.39,9.16h-14.72Zm2.23,15h14.71l1.39,8.33h-14.72Zm2.22,15h14.71l1.11,7.5h-14.71Zm2.22,14.71h14.71l1.11,6.94h-15Zm4.44,29.71h15l.83,5.55h-15Zm2.22,15h15l.83,5h-15Zm2.22,14.71h15l.84,4.44h-15Zm2.22,15h15l.56,3.61h-15Zm2.22,15h15l.56,2.78h-15Z"/><path class="cls-1" d="M3378.75,578.11h15.54v3.61h-15.54Zm0,15h15.54v2.78h-15.54Zm.83-204.6h13.88v8.61h-13.88Zm0,11.11h13.88v11.66h-13.88Zm0,15h13.88v10.83h-13.88Zm0,14.71h13.88v10.28h-13.88Zm0,15h13.88v9.44h-13.88Zm0,14.72h13.88v9.16h-13.88Zm0,15h13.88v8.33h-13.88Zm0,15h13.88v7.5h-13.88Zm0,14.71h13.88v6.94h-13.88Zm0,15h13.88v6.11h-13.88Zm0,14.72h13.88V539h-13.88Zm0,15h13.88v.83h-13.88Z"/></g></g></svg>